<svg id="svg" version="1.1" xmlns="http://www.w3.org/2000/svg" xmlns:xlink="http://www.w3.org/1999/xlink" width="400" height="100" viewBox="0, 0, 400,100"><g id="svgg"><path id="path0" d="M83.752 34.827 C 83.692 35.016,83.592 35.140,83.530 35.102 C 83.373 35.005,83.466 65.476,83.623 65.720 C 83.819 66.023,106.333 66.002,106.333 65.698 C 106.333 65.579,106.390 65.515,106.458 65.558 C 106.602 65.646,106.554 59.931,106.407 59.470 C 106.354 59.303,106.222 59.164,106.114 59.160 C 106.005 59.157,102.538 59.160,98.409 59.166 C 94.280 59.173,90.867 59.145,90.826 59.104 C 90.784 59.062,90.772 57.825,90.800 56.354 L 90.849 53.680 96.383 53.631 C 99.426 53.605,101.961 53.643,102.015 53.716 C 102.069 53.789,102.219 53.719,102.348 53.559 C 102.553 53.307,102.551 53.288,102.333 53.413 C 102.162 53.512,102.177 53.451,102.382 53.216 C 102.722 52.828,102.800 47.281,102.472 46.883 C 102.349 46.735,100.812 46.680,96.538 46.671 C 93.366 46.664,90.765 46.642,90.760 46.621 C 90.754 46.600,90.774 45.477,90.804 44.125 L 90.858 41.667 98.431 41.667 C 105.582 41.667,106.018 41.650,106.266 41.360 C 106.726 40.823,106.617 35.186,106.140 34.787 C 105.775 34.482,97.110 34.467,87.442 34.754 C 85.281 34.819,84.233 34.791,84.081 34.665 C 83.913 34.526,83.836 34.564,83.752 34.827 M112.059 34.615 C 111.862 34.654,111.656 34.850,111.602 35.051 C 111.455 35.594,111.396 65.148,111.542 65.058 C 111.610 65.015,111.667 65.172,111.667 65.407 C 111.667 65.641,111.742 65.836,111.833 65.839 C 113.445 65.894,118.539 65.829,118.664 65.752 C 118.775 65.683,118.833 62.656,118.833 56.959 L 118.833 48.270 119.208 48.674 C 119.415 48.895,119.568 49.125,119.549 49.184 C 119.530 49.242,120.341 50.106,121.351 51.103 C 122.361 52.101,124.026 53.764,125.052 54.801 C 132.424 62.250,136.271 65.996,136.469 65.919 C 136.593 65.872,137.288 65.833,138.014 65.833 L 139.333 65.833 139.333 50.531 L 139.333 35.230 138.984 34.855 C 138.564 34.404,132.743 34.356,132.300 34.800 C 132.129 34.971,132.075 36.833,132.044 43.617 C 132.022 48.348,131.980 52.242,131.951 52.272 C 131.830 52.393,128.509 48.878,128.625 48.751 C 128.694 48.675,128.665 48.662,128.561 48.721 C 128.331 48.853,127.953 48.442,128.126 48.250 C 128.194 48.175,128.165 48.162,128.061 48.221 C 127.831 48.353,127.453 47.942,127.626 47.750 C 127.694 47.675,127.665 47.662,127.561 47.721 C 127.335 47.850,126.948 47.441,127.126 47.262 C 127.194 47.194,127.168 47.164,127.067 47.194 C 126.844 47.262,122.732 43.195,122.796 42.970 C 122.821 42.881,122.769 42.853,122.681 42.908 C 122.593 42.962,122.460 42.898,122.385 42.765 C 122.310 42.632,121.708 41.966,121.045 41.285 C 120.383 40.605,119.882 40.006,119.933 39.956 C 119.984 39.905,119.868 39.814,119.677 39.753 C 119.484 39.692,119.378 39.562,119.440 39.462 C 119.501 39.363,119.475 39.329,119.381 39.387 C 119.288 39.445,119.077 39.344,118.913 39.163 C 118.749 38.982,118.683 38.829,118.766 38.823 C 118.849 38.817,118.743 38.743,118.531 38.658 C 118.319 38.572,118.187 38.436,118.237 38.354 C 118.288 38.272,118.173 38.164,117.981 38.113 C 117.790 38.063,117.677 37.951,117.731 37.863 C 117.785 37.776,117.673 37.664,117.481 37.613 C 117.290 37.563,117.183 37.442,117.243 37.345 C 117.304 37.247,117.267 37.167,117.162 37.167 C 117.057 37.167,116.506 36.698,115.938 36.125 C 114.334 34.507,113.759 34.283,112.059 34.615 M143.951 34.987 C 143.478 35.787,143.521 65.212,143.995 65.618 C 144.172 65.769,144.274 65.962,144.221 66.046 C 144.169 66.131,144.281 66.117,144.469 66.017 C 144.922 65.774,155.900 65.758,155.750 66.000 C 155.693 66.092,155.722 66.167,155.814 66.167 C 155.905 66.167,156.031 66.085,156.093 65.985 C 156.158 65.880,156.425 65.845,156.729 65.902 C 157.017 65.956,157.495 65.930,157.791 65.846 C 158.141 65.745,158.365 65.750,158.433 65.860 C 158.504 65.974,158.593 65.974,158.707 65.860 C 158.821 65.745,158.980 65.754,159.197 65.887 C 159.461 66.048,159.548 66.031,159.685 65.791 C 159.820 65.553,159.917 65.533,160.196 65.682 C 160.389 65.786,160.496 65.795,160.439 65.702 C 160.383 65.612,160.486 65.499,160.669 65.451 C 160.858 65.402,161.001 65.447,161.003 65.557 C 161.004 65.680,161.050 65.689,161.128 65.583 C 161.195 65.492,161.362 65.392,161.500 65.362 C 161.637 65.332,161.862 65.216,162.000 65.105 C 162.137 64.994,162.475 64.880,162.750 64.852 C 163.025 64.824,163.311 64.694,163.385 64.564 C 163.460 64.433,163.591 64.370,163.677 64.423 C 163.763 64.476,163.833 64.449,163.833 64.363 C 163.833 64.276,163.965 64.158,164.125 64.100 C 164.727 63.883,165.204 63.521,166.048 62.640 C 166.852 61.802,167.126 61.481,168.242 60.071 C 168.465 59.789,168.673 59.370,168.704 59.139 C 168.734 58.909,168.879 58.539,169.025 58.316 C 169.296 57.902,169.596 56.870,169.523 56.599 C 169.501 56.515,169.562 56.398,169.660 56.337 C 169.758 56.277,169.870 55.857,169.910 55.405 C 169.950 54.953,170.042 54.208,170.116 53.750 C 170.355 52.264,170.225 45.334,169.958 45.334 C 169.890 45.333,169.831 45.127,169.827 44.875 C 169.824 44.623,169.714 44.229,169.583 44.000 C 169.452 43.771,169.342 43.452,169.339 43.291 C 169.329 42.803,167.876 39.909,167.427 39.483 C 167.195 39.263,167.004 39.017,167.003 38.936 C 166.998 38.698,165.897 37.729,165.705 37.793 C 165.608 37.825,165.479 37.696,165.419 37.507 C 165.359 37.317,165.245 37.202,165.167 37.250 C 165.088 37.298,164.976 37.187,164.917 37.002 C 164.859 36.818,164.760 36.661,164.697 36.654 C 164.245 36.603,163.931 36.498,163.778 36.345 C 163.680 36.247,163.465 36.167,163.300 36.167 C 163.135 36.167,163.000 36.100,163.000 36.018 C 163.000 35.936,162.884 35.824,162.741 35.770 C 162.580 35.708,162.525 35.739,162.595 35.852 C 162.672 35.977,162.597 35.974,162.353 35.844 C 162.159 35.740,162.000 35.585,162.000 35.499 C 162.000 35.414,161.887 35.387,161.748 35.441 C 161.609 35.494,161.403 35.463,161.290 35.371 C 161.015 35.150,160.013 34.929,159.530 34.984 C 159.317 35.007,158.902 34.913,158.608 34.773 C 158.061 34.513,157.735 34.498,157.387 34.716 C 157.278 34.783,157.147 34.769,157.094 34.683 C 157.037 34.592,154.365 34.522,150.618 34.514 L 144.238 34.501 143.951 34.987 M173.834 34.665 C 173.633 34.790,173.569 35.415,173.501 37.923 C 173.429 40.562,173.479 41.284,173.756 41.635 C 173.779 41.663,175.907 41.680,178.485 41.672 C 182.146 41.661,183.190 41.705,183.250 41.871 C 183.291 41.988,183.346 47.344,183.371 53.774 C 183.415 65.002,183.429 65.479,183.734 65.816 C 184.059 66.174,184.439 66.306,184.246 65.993 C 184.173 65.875,185.115 65.827,187.192 65.841 C 190.196 65.862,190.250 65.856,190.498 65.482 C 190.716 65.154,190.757 63.513,190.798 53.385 L 190.846 41.667 195.298 41.640 C 197.747 41.626,199.841 41.617,199.953 41.621 C 200.065 41.625,200.202 41.486,200.257 41.312 C 200.312 41.138,200.427 41.038,200.512 41.091 C 200.756 41.241,200.711 35.945,200.467 35.700 C 200.311 35.544,200.317 35.500,200.492 35.500 C 200.657 35.500,200.637 35.410,200.417 35.167 C 200.183 34.908,200.168 34.830,200.349 34.817 C 200.478 34.808,200.396 34.740,200.167 34.666 C 199.572 34.474,174.142 34.473,173.834 34.665 M215.667 34.680 C 215.667 34.775,215.588 34.805,215.493 34.745 C 215.397 34.686,215.228 34.713,215.118 34.804 C 215.007 34.896,214.729 34.969,214.500 34.966 C 213.252 34.952,210.762 35.844,209.953 36.594 C 209.746 36.785,209.485 36.912,209.372 36.874 C 209.259 36.836,209.167 36.895,209.167 37.004 C 209.167 37.115,209.052 37.159,208.908 37.103 C 208.766 37.048,208.683 37.059,208.724 37.127 C 208.765 37.195,208.694 37.347,208.566 37.465 C 208.438 37.583,208.333 37.623,208.333 37.553 C 208.333 37.483,208.217 37.593,208.074 37.796 C 207.805 38.181,207.385 38.326,207.605 37.958 C 207.691 37.817,207.640 37.823,207.449 37.979 C 207.294 38.105,207.167 38.311,207.167 38.437 C 207.167 38.563,207.073 38.671,206.958 38.677 C 206.844 38.682,206.487 39.023,206.167 39.434 C 205.846 39.845,205.452 40.307,205.292 40.461 C 205.131 40.615,205.000 40.829,205.000 40.936 C 205.000 41.043,204.886 41.175,204.747 41.228 C 204.609 41.281,204.420 41.495,204.328 41.704 C 204.236 41.913,203.981 42.402,203.761 42.792 C 203.541 43.181,203.390 43.500,203.426 43.500 C 203.461 43.500,203.304 43.851,203.076 44.280 C 202.847 44.710,202.621 45.285,202.573 45.558 C 202.525 45.832,202.455 46.104,202.418 46.164 C 202.328 46.309,202.110 48.489,202.139 48.950 C 202.151 49.152,202.102 49.354,202.028 49.399 C 201.955 49.445,201.959 50.067,202.037 50.782 C 202.115 51.498,202.145 52.215,202.105 52.375 C 202.064 52.535,202.086 52.667,202.153 52.667 C 202.221 52.667,202.246 52.873,202.209 53.125 C 202.172 53.377,202.258 53.805,202.399 54.077 C 202.596 54.456,202.609 54.600,202.453 54.699 C 202.298 54.798,202.302 54.829,202.468 54.831 C 202.588 54.832,202.651 54.891,202.607 54.961 C 202.564 55.032,202.665 55.387,202.833 55.750 C 203.001 56.113,203.103 56.468,203.060 56.539 C 203.016 56.609,203.063 56.667,203.164 56.667 C 203.265 56.667,203.329 56.760,203.305 56.875 C 203.259 57.099,204.040 58.402,204.327 58.579 C 204.422 58.638,204.500 58.807,204.500 58.954 C 204.500 59.102,204.613 59.341,204.751 59.486 C 205.295 60.060,206.167 61.206,206.167 61.349 C 206.167 61.432,206.260 61.481,206.375 61.458 C 206.490 61.435,206.565 61.510,206.542 61.625 C 206.519 61.740,206.581 61.833,206.679 61.833 C 206.778 61.833,207.076 62.040,207.341 62.292 C 207.606 62.544,207.935 62.844,208.072 62.959 C 208.446 63.273,210.000 64.171,210.000 64.073 C 210.000 64.025,210.164 64.140,210.365 64.327 C 210.565 64.514,210.865 64.667,211.031 64.667 C 211.197 64.667,211.333 64.725,211.333 64.797 C 211.333 64.869,211.532 64.944,211.775 64.964 C 212.018 64.984,212.306 65.075,212.417 65.167 C 212.527 65.258,212.825 65.350,213.078 65.371 C 213.332 65.392,213.572 65.494,213.612 65.598 C 213.652 65.702,213.902 65.762,214.168 65.731 C 214.434 65.700,214.691 65.738,214.739 65.816 C 214.787 65.894,215.584 65.928,216.509 65.891 C 217.450 65.854,218.152 65.890,218.101 65.971 C 218.051 66.052,218.301 66.110,218.656 66.100 C 219.010 66.091,219.259 66.015,219.207 65.932 C 219.156 65.849,219.276 65.823,219.474 65.875 C 219.672 65.927,219.833 65.892,219.833 65.797 C 219.833 65.687,219.913 65.692,220.057 65.811 C 220.180 65.914,220.321 65.957,220.370 65.908 C 220.419 65.859,220.673 65.780,220.934 65.732 C 221.196 65.685,221.449 65.592,221.496 65.526 C 221.544 65.460,221.696 65.413,221.833 65.422 C 221.971 65.431,222.210 65.332,222.364 65.203 C 222.519 65.073,222.725 65.017,222.823 65.077 C 222.920 65.137,223.001 65.088,223.003 64.968 C 223.004 64.810,223.049 64.818,223.167 65.000 C 223.291 65.193,223.329 65.198,223.331 65.024 C 223.332 64.892,223.437 64.838,223.581 64.893 C 223.718 64.945,223.812 64.904,223.790 64.800 C 223.768 64.697,224.080 64.514,224.483 64.393 C 224.886 64.272,225.342 64.059,225.496 63.920 C 225.650 63.781,225.902 63.667,226.055 63.667 C 226.208 63.667,226.333 63.559,226.333 63.428 C 226.333 63.297,226.488 63.140,226.677 63.080 C 227.036 62.966,229.865 60.253,229.747 60.136 C 229.710 60.099,229.942 59.774,230.263 59.414 C 230.583 59.054,230.888 58.589,230.941 58.381 C 230.993 58.173,231.104 58.045,231.189 58.097 C 231.273 58.149,231.327 58.130,231.310 58.054 C 231.255 57.814,231.531 57.000,231.667 57.000 C 231.739 57.000,231.928 56.456,232.088 55.792 C 232.248 55.127,232.443 54.501,232.521 54.401 C 232.600 54.301,232.614 54.170,232.554 54.110 C 232.494 54.049,232.532 54.000,232.639 54.000 C 232.765 54.000,232.833 53.659,232.833 53.033 C 232.833 52.502,232.923 51.977,233.033 51.867 C 233.189 51.711,233.184 51.667,233.013 51.667 C 232.857 51.667,232.842 51.606,232.963 51.458 C 233.304 51.041,232.930 47.640,232.339 45.776 C 232.140 45.148,232.019 44.525,232.070 44.392 C 232.121 44.259,232.095 44.191,232.012 44.242 C 231.929 44.294,231.731 43.979,231.570 43.543 C 231.410 43.107,231.103 42.511,230.889 42.219 C 230.675 41.928,230.500 41.567,230.500 41.418 C 230.500 41.269,230.425 41.193,230.333 41.250 C 230.242 41.307,230.167 41.278,230.167 41.186 C 230.167 41.094,229.904 40.733,229.583 40.384 C 229.262 40.035,228.957 39.619,228.905 39.458 C 228.853 39.298,228.739 39.167,228.650 39.167 C 228.562 39.167,228.249 38.904,227.954 38.583 C 227.660 38.262,227.335 38.000,227.233 38.000 C 227.130 38.000,226.909 37.817,226.741 37.593 C 226.573 37.370,226.375 37.224,226.302 37.270 C 226.135 37.372,225.550 36.977,225.531 36.750 C 225.524 36.658,225.225 36.508,224.868 36.417 C 224.511 36.325,224.098 36.128,223.951 35.978 C 223.803 35.829,223.402 35.654,223.058 35.590 C 222.715 35.525,222.290 35.372,222.114 35.249 C 221.939 35.126,221.691 35.065,221.564 35.114 C 221.437 35.162,221.333 35.121,221.333 35.022 C 221.333 34.909,221.138 34.881,220.807 34.947 C 220.471 35.014,220.319 34.991,220.386 34.884 C 220.445 34.787,220.297 34.709,220.037 34.700 C 219.787 34.692,219.471 34.679,219.333 34.670 C 219.196 34.662,218.821 34.687,218.500 34.725 C 218.179 34.764,217.834 34.729,217.733 34.648 C 217.624 34.561,217.330 34.577,217.012 34.688 C 216.618 34.825,216.366 34.826,216.070 34.691 C 215.799 34.567,215.667 34.564,215.667 34.680 M236.428 34.619 C 235.646 34.822,235.674 34.239,235.668 50.221 C 235.664 63.458,235.694 65.337,235.915 65.558 C 236.053 65.696,236.167 65.899,236.167 66.009 C 236.167 66.161,236.222 66.162,236.401 66.013 C 236.566 65.876,237.522 65.833,239.610 65.867 C 243.504 65.932,243.083 66.693,243.083 59.583 L 243.083 53.750 248.274 53.667 C 252.821 53.594,253.504 53.549,253.774 53.304 C 254.084 53.024,254.117 47.059,253.811 46.755 C 253.752 46.697,251.301 46.655,248.364 46.662 L 243.023 46.675 243.053 44.212 L 243.083 41.750 250.171 41.667 C 258.955 41.563,258.086 41.920,258.148 38.393 C 258.180 36.584,258.137 35.835,257.995 35.747 C 257.847 35.655,257.854 35.586,258.024 35.466 C 258.200 35.343,258.204 35.289,258.042 35.223 C 257.927 35.177,257.833 35.045,257.833 34.931 C 257.833 34.816,257.740 34.698,257.625 34.669 C 257.271 34.579,236.770 34.531,236.428 34.619 M272.915 34.670 C 272.851 34.772,272.697 34.817,272.572 34.769 C 272.447 34.721,272.299 34.754,272.245 34.842 C 272.190 34.930,271.963 34.970,271.739 34.929 C 271.516 34.889,271.333 34.931,271.333 35.024 C 271.333 35.116,271.090 35.172,270.792 35.148 C 270.494 35.124,270.092 35.190,269.898 35.296 C 269.704 35.401,269.298 35.531,268.994 35.584 C 268.691 35.638,268.362 35.779,268.263 35.899 C 267.980 36.240,266.753 36.933,266.919 36.657 C 267.038 36.459,267.019 36.453,266.808 36.624 C 266.668 36.737,266.491 36.775,266.416 36.707 C 266.341 36.639,266.334 36.678,266.401 36.793 C 266.471 36.915,266.413 37.044,266.262 37.102 C 266.119 37.157,266.043 37.269,266.094 37.351 C 266.145 37.433,266.094 37.500,265.980 37.500 C 265.647 37.500,264.000 38.702,264.000 38.944 C 264.000 39.067,263.887 39.167,263.750 39.167 C 263.612 39.167,263.500 39.225,263.500 39.295 C 263.500 39.366,263.169 39.784,262.764 40.225 C 262.360 40.666,262.004 41.077,261.973 41.138 C 261.942 41.200,261.860 41.231,261.792 41.208 C 261.673 41.169,261.601 41.427,261.650 41.716 C 261.662 41.789,261.484 42.096,261.253 42.397 C 261.023 42.699,260.885 42.996,260.945 43.056 C 261.006 43.117,260.974 43.167,260.874 43.167 C 260.775 43.167,260.641 43.410,260.577 43.708 C 260.514 44.006,260.403 44.325,260.332 44.417 C 259.905 44.968,259.437 47.090,259.423 48.542 C 259.419 48.885,259.367 49.167,259.306 49.167 C 259.123 49.167,259.350 53.573,259.542 53.765 C 259.611 53.833,259.667 54.139,259.667 54.444 C 259.667 54.750,259.739 55.000,259.828 55.000 C 259.917 55.000,259.946 55.112,259.894 55.250 C 259.841 55.387,259.873 55.500,259.964 55.500 C 260.098 55.500,260.301 55.960,260.406 56.500 C 260.415 56.546,260.481 56.677,260.554 56.792 C 260.627 56.906,260.642 57.072,260.587 57.161 C 260.533 57.249,260.641 57.474,260.827 57.661 C 261.014 57.847,261.115 58.000,261.052 58.000 C 260.989 58.000,261.101 58.153,261.302 58.340 C 261.503 58.527,261.667 58.741,261.667 58.816 C 261.667 58.892,261.925 59.280,262.241 59.679 C 262.558 60.079,262.789 60.434,262.755 60.467 C 262.647 60.575,265.064 62.833,265.286 62.833 C 265.404 62.833,265.500 62.898,265.500 62.976 C 265.500 63.149,267.386 64.333,267.660 64.333 C 267.766 64.333,267.807 64.407,267.751 64.498 C 267.693 64.593,267.760 64.621,267.908 64.564 C 268.050 64.509,268.167 64.531,268.167 64.613 C 268.167 64.695,268.317 64.774,268.502 64.788 C 268.686 64.802,268.959 64.936,269.109 65.085 C 269.330 65.306,269.409 65.316,269.522 65.137 C 269.599 65.016,269.663 64.992,269.664 65.085 C 269.666 65.177,269.825 65.352,270.017 65.472 C 270.210 65.593,270.318 65.611,270.258 65.512 C 270.106 65.268,270.273 65.288,270.714 65.567 C 271.125 65.827,272.100 65.910,274.057 65.853 C 275.095 65.823,275.337 65.860,275.233 66.033 C 275.135 66.196,275.162 66.208,275.343 66.081 C 275.475 65.988,275.937 65.920,276.368 65.929 C 276.800 65.939,277.115 65.885,277.068 65.809 C 277.022 65.734,277.287 65.701,277.658 65.737 C 278.030 65.772,278.333 65.729,278.333 65.641 C 278.333 65.553,278.403 65.523,278.488 65.576 C 278.574 65.629,278.693 65.592,278.753 65.495 C 278.828 65.373,278.947 65.386,279.130 65.534 C 279.330 65.696,279.366 65.698,279.272 65.542 C 279.193 65.411,279.243 65.333,279.407 65.333 C 279.550 65.333,279.667 65.274,279.667 65.202 C 279.667 65.130,279.817 65.055,280.000 65.036 C 280.183 65.016,280.483 64.984,280.667 64.964 C 280.850 64.945,281.000 64.823,281.000 64.695 C 281.000 64.543,281.117 64.492,281.333 64.548 C 281.517 64.596,281.667 64.577,281.667 64.505 C 281.667 64.434,281.886 64.331,282.153 64.278 C 282.446 64.219,282.684 64.042,282.750 63.833 C 282.829 63.584,282.950 63.515,283.180 63.588 C 283.366 63.647,283.500 63.611,283.500 63.501 C 283.500 63.398,283.587 63.367,283.692 63.433 C 283.812 63.507,283.840 63.478,283.765 63.358 C 283.696 63.246,283.772 63.119,283.948 63.057 C 284.114 62.997,284.672 62.529,285.188 62.016 C 285.705 61.503,286.328 60.916,286.575 60.711 C 286.821 60.506,286.979 60.268,286.926 60.182 C 286.873 60.097,287.037 59.864,287.290 59.665 C 287.543 59.466,287.737 59.254,287.720 59.193 C 287.704 59.133,287.787 58.971,287.904 58.833 C 288.022 58.696,288.220 58.345,288.344 58.054 C 288.469 57.762,288.641 57.568,288.728 57.621 C 288.814 57.674,288.843 57.650,288.791 57.566 C 288.740 57.483,288.844 57.115,289.023 56.749 C 289.202 56.383,289.393 55.763,289.447 55.370 C 289.502 54.978,289.611 54.618,289.690 54.569 C 289.769 54.520,289.833 54.335,289.833 54.157 C 289.833 53.979,289.927 53.832,290.042 53.831 C 290.181 53.829,290.167 53.774,290.000 53.667 C 289.862 53.578,289.833 53.504,289.935 53.503 C 290.043 53.501,290.087 53.325,290.041 53.082 C 289.997 52.853,290.035 52.571,290.125 52.457 C 290.217 52.341,290.267 51.448,290.239 50.417 C 290.173 47.964,290.158 47.777,290.008 47.583 C 289.938 47.492,289.871 47.127,289.861 46.772 C 289.851 46.418,289.772 46.043,289.686 45.939 C 289.600 45.835,289.476 45.462,289.410 45.109 C 289.344 44.757,289.109 44.127,288.887 43.710 C 288.665 43.292,288.524 42.845,288.573 42.717 C 288.622 42.588,288.594 42.525,288.509 42.577 C 288.336 42.685,287.807 42.010,287.921 41.827 C 287.961 41.761,287.752 41.450,287.456 41.134 C 287.159 40.819,286.729 40.316,286.500 40.016 C 286.271 39.717,285.990 39.371,285.875 39.248 C 285.760 39.124,285.667 38.949,285.667 38.856 C 285.667 38.764,285.517 38.641,285.333 38.583 C 285.150 38.525,284.921 38.330,284.825 38.151 C 284.729 37.971,284.578 37.868,284.490 37.923 C 284.403 37.977,284.286 37.904,284.231 37.762 C 284.177 37.619,284.072 37.539,284.000 37.583 C 283.928 37.628,283.823 37.546,283.767 37.402 C 283.712 37.257,283.573 37.171,283.458 37.210 C 283.344 37.249,283.116 37.128,282.952 36.942 C 282.789 36.755,282.499 36.578,282.309 36.549 C 281.953 36.495,280.960 35.865,280.861 35.630 C 280.830 35.557,280.736 35.540,280.652 35.592 C 280.569 35.644,280.409 35.630,280.299 35.562 C 280.188 35.494,279.908 35.417,279.676 35.393 C 279.444 35.368,279.230 35.274,279.200 35.183 C 279.170 35.093,279.041 35.059,278.914 35.107 C 278.787 35.156,278.589 35.138,278.475 35.068 C 278.235 34.919,277.812 34.862,276.413 34.787 C 275.861 34.758,275.336 34.695,275.246 34.648 C 275.063 34.551,275.004 34.556,274.123 34.740 C 273.710 34.826,273.417 34.805,273.263 34.677 C 273.092 34.536,272.999 34.534,272.915 34.670 M293.921 34.620 C 293.159 34.818,293.178 34.440,293.172 50.092 C 293.168 61.740,293.211 64.982,293.375 65.158 C 293.543 65.339,293.539 65.357,293.351 65.250 C 293.190 65.158,293.212 65.276,293.425 65.636 C 293.645 66.009,293.787 66.107,293.932 65.987 C 294.053 65.887,295.359 65.828,297.187 65.841 C 299.264 65.855,300.260 65.804,300.301 65.680 C 300.334 65.580,300.412 65.529,300.473 65.566 C 300.533 65.604,300.583 62.961,300.583 59.692 L 300.583 53.750 302.643 53.703 C 304.682 53.657,304.706 53.660,305.110 54.097 C 305.335 54.339,305.478 54.577,305.429 54.627 C 305.380 54.676,305.477 54.836,305.646 54.983 C 305.996 55.288,306.693 56.585,306.572 56.706 C 306.528 56.750,306.606 56.881,306.746 56.997 C 306.886 57.113,307.000 57.315,307.000 57.447 C 307.000 57.579,307.075 57.640,307.167 57.583 C 307.258 57.527,307.333 57.605,307.333 57.758 C 307.333 57.910,307.521 58.258,307.750 58.530 C 307.979 58.803,308.167 59.212,308.167 59.439 C 308.167 59.667,308.235 59.811,308.318 59.759 C 308.402 59.708,308.631 59.985,308.829 60.375 C 309.027 60.764,309.332 61.308,309.508 61.583 C 309.684 61.858,309.909 62.269,310.008 62.497 C 310.107 62.724,310.239 62.949,310.302 62.997 C 310.365 63.044,310.563 63.383,310.742 63.750 C 310.921 64.117,311.176 64.548,311.309 64.708 C 311.443 64.869,311.503 65.000,311.444 65.000 C 311.384 65.000,311.499 65.188,311.698 65.417 L 312.060 65.833 315.623 65.833 C 317.712 65.833,319.148 65.896,319.093 65.984 C 319.042 66.068,319.149 66.097,319.331 66.049 C 319.514 66.001,319.622 65.896,319.572 65.814 C 319.521 65.733,319.560 65.667,319.657 65.667 C 320.095 65.667,319.147 63.423,318.442 62.792 C 318.262 62.631,318.169 62.500,318.235 62.500 C 318.351 62.500,317.683 61.166,317.483 61.000 C 317.268 60.820,317.000 60.170,317.000 59.826 C 317.000 59.553,316.930 59.491,316.713 59.574 C 316.556 59.635,316.479 59.632,316.543 59.568 C 316.678 59.433,315.861 57.844,315.516 57.570 C 315.377 57.459,315.337 57.296,315.417 57.166 C 315.498 57.036,315.486 56.989,315.387 57.050 C 315.297 57.106,315.121 56.891,314.996 56.572 C 314.871 56.254,314.635 55.872,314.471 55.724 C 314.308 55.576,314.215 55.390,314.264 55.311 C 314.313 55.232,314.282 55.167,314.195 55.167 C 314.107 55.167,313.986 54.965,313.924 54.718 C 313.862 54.472,313.666 54.067,313.489 53.818 C 313.312 53.569,313.167 53.241,313.167 53.089 C 313.167 52.938,313.100 52.855,313.017 52.906 C 312.935 52.957,312.830 52.900,312.784 52.779 C 312.730 52.638,312.988 52.448,313.517 52.243 C 313.966 52.069,314.333 51.840,314.333 51.734 C 314.333 51.627,314.558 51.447,314.833 51.333 C 315.108 51.219,315.333 51.060,315.333 50.980 C 315.333 50.899,315.433 50.833,315.556 50.833 C 315.678 50.833,315.780 50.740,315.782 50.625 C 315.786 50.438,316.737 48.900,317.173 48.375 C 317.269 48.260,317.310 48.167,317.265 48.167 C 317.220 48.167,317.283 47.923,317.405 47.625 C 317.526 47.327,317.596 46.901,317.559 46.679 C 317.523 46.456,317.575 46.224,317.674 46.162 C 317.916 46.012,317.898 42.265,317.653 41.807 C 317.551 41.618,317.503 41.284,317.544 41.065 C 317.586 40.846,317.556 40.667,317.477 40.667 C 317.398 40.667,317.333 40.516,317.333 40.331 C 317.333 39.986,317.066 39.426,316.722 39.050 C 316.615 38.932,316.446 38.592,316.346 38.293 C 316.245 37.989,315.909 37.576,315.583 37.354 C 315.262 37.135,315.000 36.887,315.000 36.802 C 315.000 36.717,314.924 36.694,314.832 36.751 C 314.740 36.808,314.619 36.738,314.565 36.595 C 314.510 36.452,314.408 36.371,314.338 36.414 C 314.268 36.457,314.079 36.346,313.917 36.167 C 313.755 35.988,313.562 35.878,313.489 35.923 C 313.416 35.968,313.309 35.929,313.252 35.836 C 313.194 35.743,313.007 35.667,312.835 35.667 C 312.664 35.667,312.411 35.554,312.273 35.416 C 312.135 35.278,311.811 35.158,311.553 35.149 C 310.686 35.121,309.831 34.971,309.900 34.860 C 309.967 34.752,309.827 34.734,308.667 34.699 C 308.346 34.690,307.858 34.672,307.583 34.660 C 305.872 34.584,294.191 34.550,293.921 34.620 M320.458 34.818 C 320.121 35.157,320.069 35.411,320.375 35.228 C 320.525 35.138,320.521 35.180,320.362 35.376 C 319.990 35.835,320.152 41.303,320.545 41.522 C 320.721 41.620,322.712 41.681,325.503 41.672 L 330.167 41.657 330.167 53.553 L 330.167 65.449 330.522 65.849 C 330.760 66.117,330.903 66.181,330.953 66.042 C 331.009 65.886,331.743 65.833,333.847 65.833 C 335.989 65.833,336.668 65.883,336.672 66.042 C 336.675 66.156,336.860 66.042,337.084 65.787 L 337.492 65.324 337.498 53.549 C 337.501 47.073,337.524 41.753,337.550 41.728 C 337.660 41.618,346.627 41.596,346.559 41.706 C 346.517 41.774,346.599 41.785,346.741 41.730 C 346.884 41.676,347.000 41.560,347.000 41.472 C 347.000 41.385,347.094 41.370,347.208 41.439 C 347.330 41.512,347.312 41.433,347.167 41.250 C 347.021 41.067,347.004 40.988,347.125 41.061 C 347.288 41.159,347.333 40.563,347.333 38.293 C 347.333 36.330,347.266 35.255,347.125 34.950 L 346.917 34.499 333.833 34.512 C 321.578 34.524,320.732 34.543,320.458 34.818 M350.252 34.827 C 350.192 35.016,350.092 35.140,350.030 35.102 C 349.873 35.005,349.966 65.476,350.123 65.720 C 350.319 66.023,372.833 66.002,372.833 65.698 C 372.833 65.579,372.890 65.515,372.958 65.558 C 373.102 65.646,373.054 59.931,372.907 59.470 C 372.854 59.303,372.722 59.164,372.614 59.160 C 372.505 59.157,369.038 59.160,364.909 59.166 C 360.780 59.173,357.367 59.145,357.326 59.104 C 357.284 59.062,357.272 57.825,357.300 56.354 L 357.349 53.680 362.883 53.631 C 365.926 53.605,368.461 53.643,368.515 53.716 C 368.569 53.789,368.719 53.719,368.848 53.559 C 369.053 53.307,369.051 53.288,368.833 53.413 C 368.662 53.512,368.677 53.451,368.882 53.216 C 369.222 52.828,369.300 47.281,368.972 46.883 C 368.849 46.735,367.312 46.680,363.038 46.671 C 359.866 46.664,357.265 46.642,357.260 46.621 C 357.254 46.600,357.274 45.477,357.304 44.125 L 357.358 41.667 364.931 41.667 C 372.082 41.667,372.518 41.650,372.766 41.360 C 373.226 40.823,373.117 35.186,372.640 34.787 C 372.275 34.482,363.610 34.467,353.942 34.754 C 351.781 34.819,350.733 34.791,350.581 34.665 C 350.413 34.526,350.336 34.564,350.252 34.827 M216.958 41.740 C 217.073 41.723,217.185 41.693,217.208 41.675 C 217.374 41.542,217.815 41.562,217.730 41.699 C 217.662 41.809,217.764 41.823,218.021 41.739 C 218.523 41.574,219.234 41.622,219.302 41.825 C 219.331 41.911,219.455 41.943,219.577 41.896 C 219.700 41.849,219.847 41.887,219.905 41.981 C 219.963 42.075,220.113 42.113,220.238 42.065 C 220.364 42.017,220.517 42.059,220.578 42.158 C 220.639 42.257,220.760 42.296,220.845 42.243 C 220.930 42.190,221.000 42.221,221.000 42.312 C 221.000 42.403,221.169 42.531,221.375 42.596 C 221.755 42.716,222.693 43.370,223.161 43.840 C 223.782 44.465,224.667 45.660,224.667 45.875 C 224.667 46.005,224.723 46.167,224.792 46.236 C 224.860 46.305,224.918 46.411,224.919 46.472 C 224.921 46.625,225.325 47.683,225.523 48.053 C 225.728 48.439,225.672 52.667,225.462 52.667 C 225.376 52.667,225.339 52.760,225.381 52.875 C 225.422 52.990,225.361 53.271,225.246 53.500 C 225.130 53.729,224.903 54.238,224.740 54.631 C 224.577 55.024,224.288 55.520,224.097 55.734 C 223.410 56.504,223.172 56.834,223.293 56.844 C 223.361 56.850,223.229 56.936,223.000 57.037 C 222.771 57.137,222.508 57.201,222.417 57.179 C 222.325 57.157,222.306 57.195,222.374 57.263 C 222.443 57.332,222.127 57.638,221.673 57.944 C 220.827 58.513,220.571 58.623,220.746 58.340 C 220.800 58.252,220.500 58.333,220.079 58.519 C 219.623 58.721,219.049 58.838,218.659 58.810 C 218.299 58.784,217.913 58.854,217.802 58.965 C 217.553 59.214,217.214 59.227,217.135 58.989 C 217.103 58.892,216.600 58.782,216.019 58.745 C 214.710 58.661,214.292 58.537,214.446 58.280 C 214.511 58.172,214.423 58.196,214.250 58.333 C 214.077 58.471,213.989 58.495,214.054 58.387 C 214.124 58.270,214.036 58.148,213.836 58.084 C 213.651 58.025,213.500 57.908,213.500 57.822 C 213.500 57.737,213.444 57.682,213.375 57.700 C 213.078 57.778,212.500 57.455,212.500 57.211 C 212.500 57.064,212.453 56.992,212.395 57.050 C 212.255 57.190,211.635 56.852,211.735 56.691 C 211.778 56.621,211.557 56.351,211.245 56.091 C 210.932 55.830,210.593 55.365,210.492 55.058 C 210.390 54.751,210.230 54.500,210.136 54.500 C 210.042 54.500,210.010 54.381,210.066 54.235 C 210.122 54.089,210.028 53.770,209.858 53.527 C 209.476 52.980,209.485 53.042,209.416 50.472 C 209.355 48.188,209.640 46.760,210.334 45.878 C 210.517 45.646,210.667 45.348,210.667 45.218 C 210.667 45.087,210.742 45.027,210.833 45.083 C 210.925 45.140,211.000 45.097,211.000 44.988 C 211.000 44.557,213.663 42.219,213.893 42.448 C 213.951 42.506,214.148 42.417,214.332 42.251 C 214.590 42.017,214.670 42.002,214.680 42.183 C 214.689 42.353,214.716 42.360,214.777 42.207 C 214.824 42.092,214.930 42.040,215.014 42.092 C 215.098 42.144,215.167 42.099,215.167 41.992 C 215.167 41.885,215.264 41.835,215.382 41.880 C 215.500 41.926,215.736 41.862,215.905 41.738 C 216.086 41.605,216.323 41.566,216.481 41.642 C 216.629 41.714,216.844 41.758,216.958 41.740 M275.853 41.661 C 276.162 41.573,276.434 41.500,276.457 41.500 C 276.481 41.500,276.501 41.631,276.503 41.792 C 276.504 42.009,276.540 42.028,276.642 41.867 C 276.751 41.695,276.824 41.705,277.000 41.916 C 277.121 42.062,277.333 42.138,277.472 42.085 C 277.610 42.032,277.767 42.048,277.820 42.120 C 277.873 42.191,278.274 42.425,278.710 42.638 C 279.147 42.851,279.460 43.097,279.406 43.183 C 279.353 43.270,279.370 43.325,279.446 43.304 C 279.763 43.219,280.304 43.536,280.387 43.856 C 280.438 44.050,280.557 44.151,280.660 44.088 C 280.760 44.026,280.821 44.039,280.796 44.116 C 280.771 44.193,280.949 44.472,281.192 44.734 C 281.436 44.997,281.710 45.371,281.802 45.564 C 282.068 46.124,282.222 46.573,282.193 46.708 C 282.179 46.777,282.233 46.833,282.314 46.833 C 282.817 46.833,283.109 50.614,282.741 52.375 C 282.631 52.902,282.588 53.336,282.646 53.339 C 282.703 53.342,282.611 53.449,282.442 53.578 C 282.272 53.706,282.174 53.877,282.224 53.958 C 282.339 54.144,281.494 55.608,280.929 56.201 C 280.693 56.449,280.500 56.730,280.500 56.826 C 280.500 56.922,280.422 57.000,280.326 57.000 C 280.231 57.000,279.987 57.156,279.785 57.346 C 279.396 57.711,278.185 58.317,277.629 58.424 C 277.448 58.459,277.195 58.574,277.067 58.680 C 276.940 58.786,276.647 58.837,276.418 58.793 C 276.188 58.749,276.000 58.781,276.000 58.865 C 276.000 58.954,275.883 58.951,275.718 58.859 C 275.522 58.749,275.314 58.781,275.035 58.964 C 274.727 59.166,274.565 59.183,274.337 59.041 C 274.082 58.882,273.219 58.689,272.333 58.595 C 271.933 58.552,270.501 57.928,270.501 57.797 C 270.500 57.731,270.395 57.717,270.267 57.767 C 270.139 57.816,269.977 57.764,269.908 57.652 C 269.822 57.513,269.851 57.491,270.000 57.583 C 270.144 57.673,270.178 57.653,270.099 57.526 C 270.034 57.420,269.881 57.333,269.761 57.333 C 269.640 57.333,269.438 57.206,269.312 57.051 C 269.117 56.810,269.118 56.790,269.321 56.913 C 269.452 56.992,269.190 56.678,268.738 56.215 C 267.616 55.067,267.555 54.977,267.318 54.146 C 267.204 53.745,267.048 53.345,266.972 53.258 C 266.896 53.171,266.833 52.894,266.833 52.643 C 266.833 52.392,266.771 52.148,266.695 52.101 C 266.435 51.940,266.639 48.493,266.956 47.667 C 267.009 47.529,267.038 47.325,267.020 47.213 C 266.966 46.875,267.655 45.510,267.982 45.306 C 268.178 45.183,268.257 44.994,268.201 44.779 C 268.138 44.540,268.181 44.468,268.348 44.527 C 268.478 44.572,268.715 44.472,268.875 44.305 C 269.035 44.137,269.123 44.000,269.069 44.000 C 268.244 44.000,271.393 42.152,272.281 42.115 C 272.481 42.107,272.609 42.042,272.566 41.972 C 272.445 41.777,273.172 41.643,273.873 41.730 C 274.216 41.773,274.539 41.738,274.592 41.653 C 274.650 41.560,274.805 41.562,274.989 41.661 C 275.183 41.765,275.490 41.765,275.853 41.661 M308.252 41.663 C 308.216 41.722,308.546 41.775,308.986 41.782 C 311.586 41.821,312.027 45.243,309.577 46.365 C 308.762 46.739,308.618 46.749,304.630 46.703 L 300.523 46.655 300.553 44.203 L 300.583 41.750 304.250 41.667 C 306.267 41.621,308.007 41.577,308.118 41.569 C 308.228 41.562,308.289 41.604,308.252 41.663 M28.405 42.052 C 28.359 42.173,28.343 43.092,28.370 44.094 L 28.419 45.917 28.501 43.875 C 28.582 41.858,28.570 41.624,28.405 42.052 M156.463 42.093 C 156.667 42.235,156.833 42.289,156.833 42.212 C 156.833 41.932,157.582 42.024,158.147 42.373 C 158.465 42.569,158.670 42.641,158.603 42.532 C 158.528 42.411,158.582 42.333,158.740 42.333 C 158.883 42.333,159.000 42.399,159.000 42.479 C 159.000 42.559,159.233 42.672,159.517 42.728 C 160.095 42.844,161.667 44.312,161.667 44.736 C 161.667 44.881,161.740 45.000,161.830 45.000 C 161.920 45.000,162.045 45.206,162.108 45.457 C 162.171 45.708,162.323 46.013,162.445 46.135 C 162.655 46.345,162.703 46.587,162.710 47.458 C 162.711 47.665,162.779 47.833,162.860 47.833 C 162.941 47.833,162.979 48.098,162.943 48.421 C 162.908 48.744,162.946 49.050,163.029 49.102 C 163.113 49.153,163.139 49.695,163.089 50.306 C 163.039 50.917,163.002 51.735,163.007 52.125 C 163.013 52.597,162.943 52.834,162.799 52.836 C 162.643 52.838,162.653 52.887,162.833 53.015 C 163.021 53.148,163.032 53.213,162.875 53.277 C 162.760 53.323,162.667 53.509,162.667 53.689 C 162.667 53.869,162.552 54.238,162.412 54.508 C 162.273 54.779,162.216 55.001,162.287 55.003 C 162.358 55.004,162.342 55.060,162.250 55.128 C 162.158 55.195,161.970 55.471,161.833 55.741 C 161.543 56.312,160.508 57.397,160.378 57.267 C 160.329 57.218,160.140 57.367,159.959 57.598 C 159.777 57.829,159.587 57.976,159.536 57.925 C 159.485 57.874,159.287 57.934,159.097 58.058 C 158.488 58.453,151.566 58.788,151.217 58.439 C 151.196 58.418,151.157 54.673,151.131 50.117 L 151.083 41.833 153.588 41.833 C 155.585 41.833,156.168 41.886,156.463 42.093 M51.383 43.167 C 51.383 43.671,51.415 43.877,51.453 43.625 C 51.491 43.373,51.491 42.960,51.453 42.708 C 51.415 42.456,51.383 42.662,51.383 43.167 M42.214 45.083 C 42.216 45.542,42.248 45.709,42.286 45.456 C 42.325 45.203,42.324 44.828,42.284 44.623 C 42.244 44.418,42.213 44.625,42.214 45.083 M36.908 50.167 C 36.908 53.237,36.931 54.494,36.958 52.958 C 36.986 51.423,36.986 48.910,36.958 47.375 C 36.931 45.840,36.908 47.096,36.908 50.167 M38.548 57.250 C 38.549 57.708,38.581 57.876,38.620 57.623 C 38.658 57.369,38.657 56.994,38.617 56.789 C 38.578 56.584,38.546 56.792,38.548 57.250 M51.362 57.175 C 51.335 57.896,51.537 58.333,51.899 58.333 C 51.989 58.333,51.940 58.240,51.790 58.125 C 51.629 58.003,51.490 57.607,51.454 57.167 L 51.392 56.417 51.362 57.175 M31.875 57.250 C 31.877 57.617,31.911 57.747,31.951 57.540 C 31.991 57.332,31.990 57.032,31.948 56.873 C 31.906 56.714,31.874 56.883,31.875 57.250 " stroke="none" fill="#046cfc" fill-rule="evenodd"></path><path id="path1" d="M235.413 50.250 C 235.413 58.500,235.433 61.851,235.458 57.696 C 235.483 53.541,235.483 46.791,235.458 42.696 C 235.433 38.601,235.413 42.000,235.413 50.250 M292.913 50.250 C 292.913 58.500,292.933 61.851,292.958 57.696 C 292.983 53.541,292.983 46.791,292.958 42.696 C 292.933 38.601,292.913 42.000,292.913 50.250 M28.500 44.054 L 28.583 46.250 29.910 46.299 C 30.640 46.326,31.187 46.298,31.125 46.237 C 31.064 46.175,31.124 45.910,31.260 45.647 C 31.396 45.384,31.476 45.000,31.438 44.793 C 31.372 44.428,31.404 44.418,32.514 44.472 L 33.658 44.527 33.704 50.222 L 33.750 55.917 33.000 55.923 L 32.250 55.929 32.250 56.979 L 32.250 58.030 35.333 58.021 L 38.417 58.012 38.466 57.006 C 38.502 56.275,38.457 55.994,38.300 55.978 C 38.181 55.966,37.896 55.945,37.667 55.931 C 36.813 55.879,36.833 56.018,36.833 50.099 L 36.833 44.551 38.000 44.516 C 39.198 44.481,39.214 44.490,39.211 45.208 C 39.211 45.369,39.279 45.500,39.362 45.500 C 39.446 45.500,39.502 45.594,39.488 45.708 C 39.420 46.229,39.538 46.286,40.753 46.318 C 41.442 46.336,41.996 46.291,41.983 46.217 C 41.888 45.656,42.032 44.000,42.177 44.000 C 42.274 44.000,42.307 44.075,42.250 44.167 C 42.189 44.265,42.374 44.334,42.698 44.336 C 43.002 44.337,43.419 44.383,43.625 44.438 L 44.000 44.539 43.962 50.144 L 43.923 55.750 43.833 50.167 L 43.743 44.583 43.705 50.325 C 43.678 54.441,43.616 56.016,43.486 55.886 C 42.942 55.342,42.167 56.005,42.167 57.014 C 42.167 58.181,41.881 58.093,45.498 58.034 L 48.500 57.985 48.497 57.118 C 48.495 56.129,48.374 55.861,47.958 55.926 C 47.798 55.950,47.667 55.902,47.667 55.819 C 47.667 55.735,47.479 55.667,47.250 55.667 L 46.833 55.667 46.833 53.687 C 46.833 51.153,46.593 51.315,50.272 51.371 L 53.250 51.417 53.250 53.583 C 53.250 55.725,53.246 55.750,52.875 55.730 C 52.669 55.719,52.500 55.784,52.500 55.873 C 52.500 55.963,52.245 56.007,51.933 55.970 C 51.432 55.912,51.376 55.943,51.452 56.244 C 51.499 56.431,51.585 56.909,51.644 57.307 L 51.750 58.030 61.138 58.017 C 66.302 58.009,70.599 57.959,70.687 57.904 C 70.968 57.731,70.841 53.872,70.552 53.761 C 69.467 53.345,67.580 53.788,67.942 54.374 C 68.006 54.479,67.972 54.503,67.859 54.433 C 67.739 54.358,67.677 54.427,67.693 54.615 C 67.789 55.716,67.903 55.667,65.250 55.667 L 62.833 55.667 62.833 53.500 C 62.833 52.086,62.772 51.333,62.657 51.333 C 62.560 51.333,62.529 51.255,62.588 51.160 C 62.655 51.050,63.659 50.991,65.306 51.000 C 66.742 51.009,68.048 51.012,68.208 51.008 C 68.458 51.001,68.500 50.830,68.500 49.833 L 68.500 48.667 65.667 48.667 L 62.833 48.667 62.833 46.583 L 62.833 44.500 65.250 44.500 L 67.667 44.500 67.667 45.250 C 67.667 45.663,67.665 46.039,67.663 46.087 C 67.643 46.573,69.904 46.741,70.458 46.294 C 70.716 46.086,70.750 42.633,70.498 42.164 C 70.339 41.865,70.035 41.849,64.438 41.838 C 57.573 41.824,58.009 41.747,57.969 42.976 L 57.938 43.917 57.876 43.004 C 57.841 42.501,57.724 42.034,57.615 41.965 C 57.301 41.765,52.037 41.805,51.912 42.008 C 51.839 42.126,51.718 42.112,51.541 41.966 C 51.307 41.773,51.301 41.793,51.492 42.149 C 51.618 42.387,51.673 42.873,51.627 43.349 C 51.542 44.237,51.636 44.333,52.579 44.333 C 53.297 44.333,53.333 44.454,53.333 46.847 L 53.333 48.833 50.250 48.833 C 48.554 48.833,47.110 48.833,47.042 48.833 C 46.973 48.833,46.917 47.885,46.917 46.726 C 46.917 44.449,46.885 44.530,47.917 44.225 C 48.483 44.057,48.786 42.284,48.301 41.976 C 48.002 41.787,43.042 41.797,42.376 41.988 C 42.037 42.085,41.801 42.083,41.739 41.982 C 41.677 41.883,39.106 41.828,35.028 41.840 L 28.417 41.859 28.500 44.054 M58.167 44.167 C 58.167 44.258,58.223 44.324,58.292 44.314 C 58.360 44.303,58.698 44.303,59.042 44.314 L 59.667 44.333 59.667 49.966 L 59.667 55.598 58.743 55.882 C 57.710 56.201,57.439 56.233,57.568 56.024 C 57.617 55.946,57.415 55.895,57.120 55.912 C 56.144 55.967,56.167 56.103,56.167 50.180 C 56.167 44.186,56.140 44.333,57.210 44.333 C 57.596 44.333,57.812 44.267,57.750 44.167 C 57.693 44.075,57.764 44.000,57.907 44.000 C 58.050 44.000,58.167 44.075,58.167 44.167 M258.881 50.417 C 258.882 50.875,258.915 51.043,258.953 50.789 C 258.991 50.536,258.990 50.161,258.951 49.956 C 258.911 49.751,258.880 49.958,258.881 50.417 M41.881 57.083 C 41.882 57.542,41.915 57.709,41.953 57.456 C 41.991 57.203,41.990 56.828,41.951 56.623 C 41.911 56.418,41.880 56.625,41.881 57.083 M57.951 57.540 C 57.911 57.747,57.877 57.617,57.875 57.250 C 57.874 56.883,57.906 56.714,57.948 56.873 C 57.990 57.032,57.991 57.332,57.951 57.540 " stroke="none" fill="#047cfc" fill-rule="evenodd"></path><path id="path2" d="M83.340 34.655 C 83.113 35.079,83.103 65.641,83.330 66.000 C 83.566 66.374,105.919 66.469,106.420 66.099 C 106.701 65.892,106.715 65.823,106.517 65.636 C 106.323 65.453,106.299 65.459,106.371 65.667 C 106.486 65.999,83.837 66.052,83.623 65.720 C 83.466 65.476,83.373 35.005,83.530 35.102 C 83.592 35.140,83.692 35.016,83.752 34.827 C 83.836 34.564,83.913 34.526,84.081 34.665 C 84.233 34.791,85.281 34.819,87.442 34.755 C 96.367 34.490,105.703 34.485,106.101 34.746 C 106.484 34.997,106.493 35.068,106.544 37.960 L 106.595 40.917 106.589 37.667 L 106.583 34.417 95.048 34.374 C 83.777 34.332,83.509 34.338,83.340 34.655 M111.426 34.704 C 110.968 35.358,111.039 65.539,111.500 66.000 C 112.082 66.582,118.833 66.478,118.833 65.887 C 118.833 65.755,118.757 65.694,118.664 65.752 C 118.539 65.829,113.445 65.894,111.833 65.839 C 111.742 65.836,111.667 65.641,111.667 65.407 C 111.667 65.172,111.610 65.015,111.542 65.058 C 111.397 65.147,111.454 35.596,111.599 35.060 C 111.704 34.673,112.247 34.500,113.360 34.500 C 114.158 34.500,114.610 34.785,115.938 36.125 C 116.506 36.698,117.057 37.167,117.162 37.167 C 117.267 37.167,117.304 37.247,117.243 37.345 C 117.183 37.442,117.290 37.563,117.481 37.613 C 117.673 37.664,117.785 37.776,117.731 37.863 C 117.677 37.951,117.790 38.063,117.981 38.113 C 118.173 38.164,118.285 38.276,118.231 38.363 C 118.177 38.451,118.290 38.563,118.481 38.613 C 118.673 38.664,118.793 38.764,118.748 38.837 C 118.653 38.991,119.605 39.833,119.874 39.833 C 119.974 39.833,120.007 39.882,119.948 39.941 C 119.889 40.000,120.383 40.605,121.045 41.285 C 121.708 41.966,122.310 42.632,122.385 42.765 C 122.460 42.898,122.593 42.962,122.681 42.908 C 122.769 42.853,122.821 42.878,122.796 42.964 C 122.750 43.118,131.853 52.369,131.952 52.270 C 131.981 52.241,132.022 48.348,132.044 43.617 C 132.075 36.833,132.129 34.971,132.300 34.800 C 132.743 34.356,138.564 34.404,138.984 34.855 L 139.333 35.230 139.333 34.778 L 139.333 34.327 135.713 34.372 L 132.093 34.417 131.882 34.833 C 131.721 35.152,131.671 37.146,131.669 43.292 C 131.668 47.715,131.620 51.333,131.564 51.333 C 131.507 51.333,130.864 50.732,130.134 49.998 C 129.405 49.264,128.740 48.705,128.656 48.757 C 128.572 48.808,128.548 48.734,128.603 48.592 C 128.692 48.361,128.513 48.255,128.131 48.312 C 128.066 48.321,128.055 48.218,128.107 48.081 C 128.192 47.861,128.005 47.756,127.631 47.812 C 127.566 47.821,127.555 47.718,127.607 47.581 C 127.693 47.357,127.495 47.251,127.113 47.318 C 127.037 47.331,127.019 47.271,127.073 47.184 C 127.126 47.097,126.363 46.210,125.377 45.214 C 124.390 44.217,121.576 41.361,119.123 38.867 L 114.663 34.333 113.174 34.333 C 111.825 34.333,111.661 34.368,111.426 34.704 M143.605 34.740 C 143.366 35.105,143.339 36.687,143.339 50.213 C 143.339 66.666,143.304 66.080,144.294 66.268 C 145.476 66.493,159.673 66.260,159.825 66.013 C 159.904 65.886,160.200 65.788,160.484 65.796 C 160.824 65.806,161.000 65.731,161.000 65.576 C 161.000 65.393,160.906 65.377,160.569 65.505 C 160.332 65.595,160.075 65.629,159.996 65.581 C 159.918 65.533,159.778 65.626,159.686 65.788 C 159.548 66.031,159.461 66.048,159.197 65.887 C 158.980 65.754,158.821 65.745,158.707 65.860 C 158.593 65.974,158.504 65.974,158.433 65.860 C 158.365 65.750,158.141 65.745,157.791 65.846 C 157.495 65.930,157.017 65.956,156.729 65.902 C 156.425 65.845,156.158 65.880,156.093 65.985 C 156.031 66.085,155.905 66.167,155.814 66.167 C 155.722 66.167,155.693 66.092,155.750 66.000 C 155.900 65.758,144.922 65.774,144.469 66.017 C 144.281 66.117,144.169 66.131,144.221 66.046 C 144.274 65.962,144.172 65.769,143.995 65.618 C 143.521 65.212,143.478 35.787,143.951 34.987 L 144.238 34.501 150.618 34.514 C 154.365 34.522,157.037 34.592,157.094 34.683 C 157.147 34.769,157.278 34.783,157.387 34.716 C 157.735 34.498,158.061 34.513,158.608 34.773 C 158.902 34.913,159.317 35.007,159.530 34.984 C 160.010 34.930,161.015 35.150,161.286 35.368 C 161.398 35.458,161.580 35.501,161.692 35.464 C 161.804 35.426,162.030 35.530,162.194 35.694 C 162.358 35.858,162.607 35.949,162.746 35.895 C 162.886 35.841,163.000 35.881,163.000 35.982 C 163.000 36.084,163.135 36.167,163.300 36.167 C 163.465 36.167,163.680 36.247,163.778 36.345 C 163.931 36.498,164.245 36.603,164.697 36.654 C 164.760 36.661,164.859 36.818,164.917 37.002 C 164.976 37.187,165.088 37.298,165.167 37.250 C 165.245 37.202,165.359 37.317,165.419 37.507 C 165.479 37.696,165.608 37.825,165.705 37.793 C 165.897 37.729,166.998 38.698,167.003 38.936 C 167.004 39.017,167.195 39.263,167.427 39.483 C 167.876 39.909,169.329 42.803,169.339 43.291 C 169.342 43.452,169.456 43.771,169.592 44.000 C 169.832 44.405,169.835 44.398,169.732 43.750 C 169.674 43.383,169.560 43.012,169.480 42.925 C 169.399 42.838,169.333 42.657,169.333 42.524 C 169.333 42.272,168.210 39.908,167.917 39.542 C 166.823 38.179,166.478 37.809,165.846 37.320 C 165.440 37.006,165.024 36.675,164.921 36.583 C 164.591 36.289,163.359 35.667,163.106 35.667 C 162.971 35.667,162.835 35.590,162.804 35.496 C 162.773 35.402,162.458 35.299,162.105 35.267 C 161.752 35.235,161.414 35.131,161.354 35.034 C 161.295 34.938,160.777 34.806,160.203 34.741 C 159.629 34.676,159.119 34.558,159.070 34.478 C 159.021 34.398,155.581 34.333,151.426 34.333 L 143.872 34.333 143.605 34.740 M173.427 34.703 C 173.129 35.128,173.041 41.043,173.326 41.494 C 173.521 41.802,173.543 41.804,178.792 41.820 L 183.167 41.833 183.167 53.821 C 183.167 64.497,183.195 65.838,183.429 66.071 C 183.649 66.292,184.214 66.333,187.000 66.333 C 190.811 66.333,190.846 66.321,190.814 65.030 L 190.795 64.250 190.672 64.883 C 190.483 65.862,190.478 65.864,187.172 65.841 C 185.109 65.827,184.173 65.875,184.246 65.993 C 184.439 66.306,184.059 66.174,183.734 65.816 C 183.429 65.479,183.415 64.997,183.366 53.691 C 183.339 47.215,183.262 41.862,183.195 41.796 C 183.129 41.729,180.968 41.669,178.392 41.662 C 173.911 41.649,173.703 41.634,173.563 41.322 C 173.303 40.743,173.544 34.846,173.834 34.665 C 174.117 34.489,199.117 34.432,199.983 34.605 C 200.288 34.666,200.444 34.765,200.339 34.830 C 200.208 34.911,200.234 35.015,200.423 35.172 C 200.665 35.373,200.689 35.344,200.639 34.907 L 200.583 34.417 187.135 34.374 L 173.687 34.331 173.427 34.703 M214.768 34.472 C 214.718 34.552,214.214 34.667,213.647 34.726 C 213.081 34.785,212.535 34.900,212.434 34.981 C 212.333 35.062,212.006 35.180,211.708 35.244 C 211.410 35.308,211.167 35.425,211.167 35.506 C 211.167 35.586,210.907 35.700,210.589 35.760 C 210.272 35.819,209.925 35.973,209.819 36.101 C 209.713 36.229,209.523 36.333,209.396 36.333 C 209.270 36.333,209.167 36.408,209.167 36.500 C 209.167 36.592,209.083 36.667,208.981 36.667 C 208.514 36.667,205.487 39.521,204.651 40.750 C 204.339 41.208,204.044 41.621,203.996 41.667 C 203.787 41.865,202.667 44.285,202.667 44.536 C 202.667 44.689,202.596 44.857,202.510 44.911 C 202.423 44.964,202.301 45.362,202.239 45.796 C 202.176 46.229,202.040 46.689,201.937 46.817 C 201.679 47.140,201.686 52.863,201.945 53.750 C 202.738 56.458,202.949 57.061,203.198 57.328 C 203.353 57.495,203.443 57.668,203.397 57.714 C 203.302 57.809,204.335 59.554,204.535 59.639 C 204.607 59.669,204.667 59.770,204.667 59.862 C 204.667 60.265,206.959 62.548,208.500 63.678 C 209.180 64.177,211.535 65.333,211.870 65.333 C 211.997 65.333,212.171 65.399,212.258 65.480 C 212.538 65.739,213.711 65.883,213.633 65.649 C 213.595 65.535,213.345 65.413,213.078 65.377 C 212.810 65.341,212.507 65.242,212.404 65.156 C 212.301 65.070,212.018 64.984,211.775 64.964 C 211.532 64.944,211.333 64.869,211.333 64.797 C 211.333 64.725,211.197 64.667,211.031 64.667 C 210.865 64.667,210.565 64.514,210.365 64.327 C 210.164 64.140,210.000 64.025,210.000 64.073 C 210.000 64.171,208.446 63.273,208.072 62.959 C 207.935 62.844,207.606 62.544,207.341 62.292 C 207.076 62.040,206.778 61.833,206.679 61.833 C 206.581 61.833,206.519 61.740,206.542 61.625 C 206.565 61.510,206.490 61.435,206.375 61.458 C 206.260 61.481,206.167 61.432,206.167 61.349 C 206.167 61.206,205.295 60.060,204.751 59.486 C 204.613 59.341,204.500 59.102,204.500 58.954 C 204.500 58.807,204.422 58.638,204.327 58.579 C 204.040 58.402,203.259 57.099,203.305 56.875 C 203.329 56.760,203.265 56.667,203.164 56.667 C 203.063 56.667,203.016 56.609,203.060 56.539 C 203.103 56.468,203.001 56.113,202.833 55.750 C 202.665 55.387,202.564 55.032,202.607 54.961 C 202.651 54.891,202.588 54.832,202.468 54.831 C 202.302 54.829,202.298 54.798,202.453 54.699 C 202.609 54.600,202.596 54.456,202.399 54.077 C 202.258 53.805,202.172 53.377,202.209 53.125 C 202.246 52.873,202.221 52.667,202.153 52.667 C 202.086 52.667,202.064 52.535,202.105 52.375 C 202.145 52.215,202.115 51.498,202.037 50.782 C 201.959 50.067,201.955 49.445,202.028 49.399 C 202.102 49.354,202.151 49.152,202.139 48.950 C 202.110 48.489,202.328 46.309,202.418 46.164 C 202.455 46.104,202.525 45.832,202.573 45.558 C 202.621 45.285,202.847 44.710,203.076 44.280 C 203.304 43.851,203.461 43.500,203.426 43.500 C 203.390 43.500,203.541 43.181,203.761 42.792 C 203.981 42.402,204.236 41.913,204.328 41.704 C 204.420 41.495,204.609 41.281,204.747 41.228 C 204.886 41.175,205.000 41.043,205.000 40.936 C 205.000 40.829,205.131 40.615,205.292 40.461 C 205.452 40.307,205.846 39.845,206.167 39.434 C 206.487 39.023,206.844 38.682,206.958 38.677 C 207.073 38.671,207.167 38.563,207.167 38.437 C 207.167 38.311,207.294 38.105,207.449 37.979 C 207.640 37.823,207.691 37.817,207.605 37.958 C 207.385 38.326,207.805 38.181,208.074 37.796 C 208.217 37.593,208.333 37.483,208.333 37.553 C 208.333 37.623,208.438 37.583,208.566 37.465 C 208.694 37.347,208.765 37.195,208.724 37.127 C 208.683 37.059,208.766 37.048,208.908 37.103 C 209.052 37.159,209.167 37.115,209.167 37.004 C 209.167 36.895,209.259 36.836,209.372 36.874 C 209.485 36.912,209.746 36.785,209.953 36.594 C 210.762 35.844,213.252 34.952,214.500 34.966 C 214.729 34.969,215.007 34.896,215.118 34.804 C 215.228 34.713,215.397 34.686,215.493 34.745 C 215.588 34.805,215.667 34.775,215.667 34.680 C 215.667 34.564,215.799 34.567,216.070 34.691 C 216.366 34.826,216.618 34.825,217.012 34.688 C 217.330 34.577,217.624 34.561,217.733 34.648 C 217.834 34.729,218.179 34.764,218.500 34.725 C 219.155 34.646,219.277 34.644,219.750 34.706 C 219.933 34.730,220.121 34.675,220.167 34.583 C 220.272 34.373,214.897 34.262,214.768 34.472 M235.670 34.661 C 235.483 35.010,235.408 65.398,235.592 65.880 C 235.890 66.655,243.167 66.525,243.167 65.744 C 243.167 65.446,242.854 65.420,242.743 65.708 C 242.682 65.867,241.947 65.904,239.653 65.864 C 237.508 65.827,236.575 65.869,236.405 66.010 C 236.221 66.162,236.167 66.162,236.167 66.009 C 236.167 65.899,236.053 65.696,235.915 65.558 C 235.512 65.155,235.546 35.263,235.950 34.860 C 236.202 34.608,237.160 34.585,246.738 34.597 C 257.972 34.612,257.833 34.608,257.833 34.944 C 257.833 35.067,257.908 35.167,258.000 35.167 C 258.225 35.167,258.202 34.977,257.935 34.625 C 257.569 34.143,235.928 34.178,235.670 34.661 M272.167 34.485 C 272.029 34.563,271.410 34.679,270.792 34.743 C 270.173 34.807,269.667 34.929,269.667 35.013 C 269.667 35.098,269.550 35.167,269.408 35.167 C 268.828 35.167,266.393 36.397,266.456 36.658 C 266.478 36.748,266.394 36.782,266.269 36.734 C 266.145 36.687,265.939 36.746,265.813 36.865 C 265.686 36.985,265.208 37.383,264.751 37.750 C 261.756 40.149,259.693 43.693,259.144 47.381 C 258.828 49.504,259.055 54.356,259.497 54.917 C 259.569 55.008,259.684 55.343,259.752 55.661 C 259.820 55.979,259.935 56.354,260.008 56.495 C 260.080 56.635,260.287 57.050,260.466 57.417 C 261.002 58.512,261.404 59.221,261.625 59.463 C 261.740 59.588,261.833 59.749,261.833 59.821 C 261.833 60.334,266.334 64.333,266.912 64.333 C 267.037 64.333,267.164 64.403,267.194 64.488 C 267.275 64.711,268.167 64.906,268.167 64.701 C 268.167 64.608,267.960 64.461,267.708 64.373 C 266.983 64.120,265.663 63.227,265.796 63.080 C 265.862 63.007,265.823 63.001,265.708 63.066 C 265.594 63.132,265.500 63.107,265.500 63.010 C 265.500 62.913,265.404 62.833,265.286 62.833 C 265.064 62.833,262.647 60.575,262.755 60.467 C 262.789 60.434,262.558 60.079,262.241 59.679 C 261.925 59.280,261.667 58.892,261.667 58.816 C 261.667 58.741,261.503 58.527,261.302 58.340 C 261.101 58.153,260.989 58.000,261.052 58.000 C 261.115 58.000,261.014 57.847,260.827 57.661 C 260.641 57.474,260.533 57.249,260.587 57.161 C 260.642 57.072,260.627 56.906,260.554 56.792 C 260.481 56.677,260.415 56.546,260.406 56.500 C 260.301 55.960,260.098 55.500,259.964 55.500 C 259.873 55.500,259.841 55.387,259.894 55.250 C 259.946 55.112,259.917 55.000,259.828 55.000 C 259.739 55.000,259.667 54.750,259.667 54.444 C 259.667 54.139,259.611 53.833,259.542 53.765 C 259.350 53.573,259.123 49.167,259.306 49.167 C 259.367 49.167,259.419 48.885,259.423 48.542 C 259.437 47.090,259.905 44.968,260.332 44.417 C 260.403 44.325,260.514 44.006,260.577 43.708 C 260.641 43.410,260.775 43.167,260.874 43.167 C 260.974 43.167,261.006 43.117,260.945 43.056 C 260.885 42.996,261.023 42.699,261.253 42.397 C 261.484 42.096,261.662 41.789,261.650 41.716 C 261.601 41.427,261.673 41.169,261.792 41.208 C 261.860 41.231,261.930 41.212,261.947 41.167 C 261.963 41.121,262.319 40.710,262.738 40.254 C 263.157 39.797,263.500 39.366,263.500 39.295 C 263.500 39.225,263.612 39.167,263.750 39.167 C 263.887 39.167,264.000 39.067,264.000 38.944 C 264.000 38.702,265.647 37.500,265.980 37.500 C 266.094 37.500,266.154 37.444,266.115 37.375 C 266.076 37.306,266.274 37.063,266.557 36.833 C 266.840 36.604,267.004 36.525,266.923 36.657 C 266.752 36.933,267.983 36.237,268.263 35.899 C 268.362 35.779,268.699 35.637,269.013 35.582 C 269.327 35.527,269.761 35.366,269.979 35.224 C 270.196 35.082,270.333 35.033,270.282 35.115 C 270.232 35.197,270.447 35.234,270.762 35.197 C 271.076 35.160,271.333 35.068,271.333 34.993 C 271.333 34.917,271.516 34.889,271.739 34.929 C 271.963 34.970,272.190 34.930,272.245 34.842 C 272.299 34.754,272.447 34.721,272.572 34.769 C 272.697 34.817,272.851 34.772,272.915 34.670 C 272.999 34.534,273.092 34.536,273.263 34.677 C 273.417 34.805,273.710 34.826,274.123 34.740 C 275.004 34.556,275.063 34.551,275.246 34.648 C 275.336 34.695,275.861 34.758,276.413 34.787 C 277.660 34.854,278.170 34.923,278.534 35.077 C 278.690 35.142,278.890 35.152,278.978 35.097 C 279.066 35.043,279.164 35.077,279.196 35.173 C 279.229 35.269,279.444 35.368,279.676 35.393 C 279.908 35.417,280.188 35.494,280.299 35.562 C 280.409 35.630,280.569 35.644,280.652 35.592 C 280.736 35.540,280.830 35.557,280.861 35.630 C 280.960 35.865,281.953 36.495,282.309 36.549 C 282.499 36.578,282.789 36.755,282.952 36.942 C 283.116 37.128,283.344 37.249,283.458 37.210 C 283.573 37.171,283.712 37.257,283.767 37.402 C 283.823 37.546,283.928 37.628,284.000 37.583 C 284.072 37.539,284.177 37.619,284.231 37.762 C 284.286 37.904,284.403 37.977,284.490 37.923 C 284.578 37.868,284.729 37.971,284.825 38.151 C 284.921 38.330,285.150 38.525,285.333 38.583 C 285.517 38.641,285.667 38.764,285.667 38.856 C 285.667 38.949,285.760 39.124,285.875 39.248 C 285.990 39.371,286.271 39.717,286.500 40.016 C 286.729 40.316,287.159 40.819,287.456 41.134 C 287.752 41.450,287.959 41.764,287.916 41.834 C 287.873 41.904,287.973 42.138,288.138 42.355 C 288.304 42.572,288.614 43.125,288.827 43.583 C 289.041 44.042,289.245 44.331,289.282 44.227 C 289.362 44.000,288.807 42.667,288.633 42.667 C 288.565 42.667,288.554 42.554,288.606 42.417 C 288.659 42.279,288.624 42.167,288.529 42.167 C 288.434 42.167,288.303 42.001,288.239 41.799 C 288.175 41.597,288.039 41.344,287.936 41.237 C 287.834 41.129,287.637 40.869,287.500 40.658 C 286.838 39.646,284.628 37.408,284.125 37.241 C 283.965 37.188,283.833 37.074,283.833 36.989 C 283.833 36.903,283.762 36.833,283.675 36.833 C 283.588 36.833,283.183 36.608,282.776 36.333 C 282.368 36.058,281.982 35.833,281.918 35.833 C 281.853 35.833,281.564 35.723,281.275 35.587 C 280.420 35.186,278.659 34.667,278.155 34.667 C 277.897 34.667,277.640 34.592,277.583 34.500 C 277.457 34.296,272.525 34.282,272.167 34.485 M293.204 34.669 C 292.986 35.018,292.885 64.987,293.100 65.776 C 293.238 66.285,293.542 66.329,297.010 66.331 C 300.173 66.333,300.912 66.198,300.588 65.674 C 300.489 65.514,300.429 65.511,300.336 65.663 C 300.247 65.806,299.352 65.856,297.120 65.841 C 295.010 65.827,293.991 65.879,293.913 66.006 C 293.838 66.127,293.714 66.071,293.556 65.845 C 293.423 65.655,293.357 65.430,293.410 65.345 C 293.462 65.259,293.429 65.143,293.336 65.085 C 293.029 64.895,293.120 35.326,293.429 34.917 C 293.674 34.592,293.858 34.584,300.382 34.612 C 309.235 34.650,308.941 34.640,309.970 34.939 C 310.463 35.083,311.134 35.200,311.462 35.200 C 311.789 35.200,312.162 35.305,312.290 35.433 C 312.419 35.562,312.664 35.667,312.835 35.667 C 313.007 35.667,313.194 35.743,313.252 35.836 C 313.309 35.929,313.416 35.968,313.489 35.923 C 313.562 35.878,313.755 35.988,313.917 36.167 C 314.079 36.346,314.268 36.457,314.338 36.414 C 314.408 36.371,314.510 36.452,314.565 36.595 C 314.619 36.738,314.740 36.808,314.832 36.751 C 314.924 36.694,315.000 36.717,315.000 36.802 C 315.000 36.887,315.259 37.135,315.576 37.352 C 315.930 37.594,316.256 38.020,316.423 38.456 C 316.572 38.847,316.754 39.167,316.828 39.167 C 316.901 39.167,317.012 39.335,317.075 39.542 C 317.138 39.748,317.224 39.833,317.267 39.732 C 317.466 39.263,315.360 36.333,314.824 36.333 C 314.751 36.333,314.586 36.229,314.458 36.101 C 314.144 35.787,312.658 35.120,312.539 35.239 C 312.487 35.291,312.309 35.212,312.143 35.062 C 311.943 34.881,311.510 34.784,310.839 34.770 C 310.157 34.757,309.834 34.683,309.834 34.542 C 309.833 34.127,293.464 34.252,293.204 34.669 M320.117 34.721 C 319.396 35.822,319.843 41.844,320.644 41.828 C 320.871 41.824,320.860 41.780,320.583 41.571 C 320.156 41.248,319.963 35.868,320.362 35.376 C 320.521 35.180,320.525 35.138,320.375 35.228 C 320.043 35.427,320.134 35.102,320.497 34.791 C 320.966 34.389,347.000 34.338,347.000 34.738 C 347.000 34.871,347.075 35.027,347.167 35.083 C 347.261 35.142,347.333 35.002,347.333 34.760 L 347.333 34.333 333.853 34.333 L 320.372 34.333 320.117 34.721 M349.840 34.655 C 349.613 35.079,349.603 65.641,349.830 66.000 C 350.066 66.374,372.419 66.469,372.920 66.099 C 373.201 65.892,373.215 65.823,373.017 65.636 C 372.823 65.453,372.799 65.459,372.871 65.667 C 372.986 65.999,350.337 66.052,350.123 65.720 C 349.966 65.476,349.873 35.005,350.030 35.102 C 350.092 35.140,350.192 35.016,350.252 34.827 C 350.336 34.564,350.413 34.526,350.581 34.665 C 350.733 34.791,351.781 34.819,353.942 34.755 C 362.867 34.490,372.203 34.485,372.601 34.746 C 372.984 34.997,372.993 35.068,373.044 37.960 L 373.095 40.917 373.089 37.667 L 373.083 34.417 361.548 34.374 C 350.277 34.332,350.009 34.338,349.840 34.655 M220.395 34.868 C 220.317 34.995,220.444 35.019,220.807 34.947 C 221.138 34.881,221.333 34.909,221.333 35.022 C 221.333 35.121,221.437 35.162,221.564 35.114 C 221.691 35.065,221.939 35.126,222.114 35.249 C 222.290 35.372,222.715 35.525,223.058 35.590 C 223.402 35.654,223.803 35.829,223.951 35.978 C 224.098 36.128,224.511 36.325,224.868 36.417 C 225.225 36.508,225.524 36.658,225.531 36.750 C 225.550 36.977,226.135 37.372,226.302 37.270 C 226.375 37.224,226.573 37.370,226.741 37.593 C 226.909 37.817,227.130 38.000,227.233 38.000 C 227.335 38.000,227.660 38.262,227.954 38.583 C 228.249 38.904,228.562 39.167,228.650 39.167 C 228.739 39.167,228.853 39.298,228.905 39.458 C 228.957 39.619,229.262 40.035,229.583 40.384 C 229.904 40.733,230.167 41.094,230.167 41.186 C 230.167 41.278,230.242 41.307,230.333 41.250 C 230.425 41.193,230.500 41.269,230.500 41.418 C 230.500 41.567,230.673 41.928,230.884 42.219 C 231.310 42.809,231.766 43.914,232.408 45.917 C 232.678 46.760,232.800 47.005,232.740 46.583 C 232.587 45.508,232.571 45.440,232.341 44.917 C 232.220 44.642,232.127 44.285,232.134 44.125 C 232.140 43.965,232.084 43.833,232.008 43.833 C 231.932 43.833,231.822 43.576,231.763 43.262 C 231.704 42.948,231.602 42.667,231.536 42.637 C 231.471 42.608,231.230 42.226,231.002 41.789 C 230.774 41.352,230.417 40.811,230.210 40.588 C 230.003 40.364,229.833 40.133,229.833 40.073 C 229.833 39.864,227.572 37.726,226.750 37.158 C 226.292 36.842,225.879 36.546,225.833 36.500 C 225.619 36.287,224.323 35.667,224.092 35.667 C 223.950 35.667,223.833 35.592,223.833 35.500 C 223.833 35.408,223.702 35.333,223.542 35.332 C 223.381 35.332,223.025 35.214,222.751 35.071 C 222.132 34.748,220.553 34.612,220.395 34.868 M317.333 40.323 C 317.333 40.512,317.408 40.667,317.500 40.667 C 317.592 40.667,317.667 40.559,317.667 40.427 C 317.667 40.294,317.592 40.140,317.500 40.083 C 317.408 40.027,317.333 40.135,317.333 40.323 M317.503 41.198 C 317.504 41.410,317.578 41.696,317.667 41.833 C 317.790 42.024,317.829 41.956,317.831 41.552 C 317.832 41.259,317.758 40.973,317.667 40.917 C 317.574 40.859,317.501 40.984,317.503 41.198 M106.374 41.254 C 106.196 41.573,105.937 41.586,98.470 41.670 L 90.750 41.757 98.630 41.795 C 105.427 41.828,106.523 41.800,106.604 41.589 C 106.767 41.165,106.578 40.890,106.374 41.254 M200.260 41.302 C 200.157 41.627,200.008 41.638,195.542 41.659 C 193.006 41.671,190.896 41.715,190.854 41.757 C 190.812 41.799,192.968 41.833,195.644 41.833 C 200.677 41.833,201.164 41.764,200.539 41.139 C 200.420 41.020,200.333 41.071,200.260 41.302 M257.613 41.292 C 257.347 41.558,256.694 41.591,250.203 41.667 L 243.083 41.750 243.053 44.212 L 243.023 46.675 248.364 46.662 C 251.301 46.655,253.752 46.697,253.811 46.755 C 253.869 46.813,253.957 48.223,254.007 49.888 L 254.098 52.917 254.132 49.801 C 254.177 45.759,254.832 46.167,248.296 46.167 L 243.167 46.167 243.167 44.000 L 243.167 41.833 250.440 41.833 C 257.171 41.833,257.730 41.812,257.935 41.542 C 258.364 40.977,258.119 40.786,257.613 41.292 M347.006 41.083 C 347.115 41.624,347.000 41.638,342.299 41.659 C 339.714 41.670,337.577 41.701,337.551 41.727 C 337.525 41.753,337.501 47.073,337.498 53.549 L 337.492 65.324 337.084 65.787 C 336.860 66.042,336.675 66.156,336.672 66.042 C 336.668 65.883,335.989 65.833,333.847 65.833 C 331.743 65.833,331.009 65.886,330.953 66.042 C 330.903 66.181,330.760 66.117,330.522 65.849 L 330.167 65.449 330.167 53.558 L 330.167 41.667 325.542 41.705 L 320.917 41.744 325.375 41.792 L 329.833 41.839 329.833 53.827 L 329.833 65.814 330.204 66.074 C 330.868 66.539,336.878 66.450,337.327 65.969 C 337.662 65.609,337.667 65.449,337.667 53.719 L 337.667 41.833 342.125 41.815 C 344.577 41.805,346.752 41.810,346.959 41.827 C 347.336 41.857,347.425 41.370,347.102 41.046 C 347.030 40.975,346.987 40.992,347.006 41.083 M372.874 41.254 C 372.696 41.573,372.437 41.586,364.970 41.670 L 357.250 41.757 365.130 41.795 C 371.927 41.828,373.023 41.800,373.104 41.589 C 373.267 41.165,373.078 40.890,372.874 41.254 M215.898 41.743 C 215.733 41.864,215.500 41.926,215.382 41.880 C 215.264 41.835,215.167 41.885,215.167 41.992 C 215.167 42.099,215.092 42.140,215.000 42.083 C 214.908 42.027,214.833 42.061,214.833 42.159 C 214.833 42.273,215.088 42.302,215.542 42.238 C 216.472 42.108,216.667 42.042,216.667 41.856 C 216.667 41.584,216.208 41.516,215.898 41.743 M218.292 41.631 C 217.732 41.747,218.381 42.107,219.356 42.221 C 220.324 42.335,220.601 42.448,221.781 43.208 C 223.247 44.152,224.375 45.659,224.933 47.417 C 225.318 48.632,225.396 52.504,225.042 52.858 C 224.927 52.973,224.833 53.169,224.833 53.294 C 224.833 53.810,223.924 55.384,223.162 56.188 C 222.712 56.662,222.374 57.098,222.411 57.157 C 222.447 57.216,222.320 57.276,222.128 57.290 C 221.937 57.305,221.735 57.389,221.680 57.478 C 221.625 57.567,221.370 57.693,221.113 57.757 C 220.857 57.822,220.679 57.959,220.718 58.062 C 220.763 58.181,220.512 58.263,220.033 58.286 C 219.617 58.306,219.233 58.393,219.180 58.479 C 219.126 58.566,218.857 58.670,218.583 58.710 C 218.133 58.776,218.147 58.786,218.714 58.808 C 219.060 58.822,219.612 58.721,219.940 58.584 C 220.267 58.448,220.603 58.378,220.687 58.429 C 220.770 58.480,221.328 58.180,221.927 57.761 C 222.526 57.343,223.100 57.000,223.202 57.000 C 223.305 57.000,223.345 56.956,223.291 56.903 C 223.197 56.808,223.389 56.528,224.097 55.734 C 224.288 55.520,224.577 55.024,224.740 54.631 C 224.903 54.238,225.130 53.729,225.246 53.500 C 225.361 53.271,225.422 52.990,225.381 52.875 C 225.339 52.760,225.376 52.667,225.462 52.667 C 225.672 52.667,225.728 48.439,225.523 48.053 C 225.325 47.683,224.921 46.625,224.919 46.472 C 224.918 46.411,224.860 46.305,224.792 46.236 C 224.723 46.167,224.667 46.005,224.667 45.875 C 224.667 45.660,223.782 44.465,223.161 43.840 C 222.693 43.370,221.755 42.716,221.375 42.596 C 221.169 42.531,221.000 42.403,221.000 42.312 C 221.000 42.221,220.930 42.190,220.845 42.243 C 220.760 42.296,220.639 42.257,220.578 42.158 C 220.517 42.059,220.364 42.017,220.238 42.065 C 220.113 42.113,219.963 42.075,219.905 41.981 C 219.847 41.887,219.695 41.851,219.566 41.900 C 219.438 41.949,219.333 41.926,219.333 41.848 C 219.333 41.678,218.701 41.546,218.292 41.631 M275.865 41.619 C 275.147 41.756,275.606 42.083,276.721 42.228 C 277.333 42.307,277.833 42.439,277.833 42.519 C 277.833 42.600,277.940 42.667,278.071 42.667 C 278.202 42.667,278.416 42.773,278.546 42.904 C 278.677 43.034,278.924 43.165,279.097 43.195 C 279.495 43.265,281.243 45.230,281.592 46.000 C 281.737 46.321,281.926 46.733,282.012 46.917 C 283.958 51.061,281.158 57.497,277.075 58.263 C 276.351 58.398,275.935 58.833,276.530 58.833 C 276.752 58.833,277.010 58.757,277.104 58.663 C 277.198 58.569,277.428 58.463,277.617 58.426 C 278.184 58.317,279.393 57.715,279.785 57.346 C 279.987 57.156,280.231 57.000,280.326 57.000 C 280.422 57.000,280.500 56.922,280.500 56.826 C 280.500 56.730,280.693 56.449,280.929 56.201 C 281.494 55.608,282.339 54.144,282.224 53.958 C 282.174 53.877,282.272 53.706,282.442 53.578 C 282.611 53.449,282.703 53.342,282.646 53.339 C 282.588 53.336,282.631 52.902,282.741 52.375 C 283.109 50.614,282.817 46.833,282.314 46.833 C 282.233 46.833,282.179 46.777,282.193 46.708 C 282.222 46.573,282.068 46.124,281.802 45.564 C 281.710 45.371,281.436 44.997,281.192 44.734 C 280.949 44.472,280.771 44.193,280.796 44.116 C 280.821 44.039,280.760 44.026,280.660 44.088 C 280.559 44.150,280.441 44.061,280.396 43.890 C 280.315 43.579,279.838 43.238,278.583 42.593 C 278.217 42.404,277.873 42.191,277.820 42.119 C 277.767 42.048,277.610 42.032,277.472 42.085 C 277.333 42.138,277.121 42.062,277.000 41.916 C 276.824 41.705,276.751 41.695,276.642 41.867 C 276.540 42.028,276.504 42.009,276.503 41.792 C 276.501 41.631,276.444 41.510,276.375 41.523 C 276.306 41.535,276.077 41.578,275.865 41.619 M304.250 41.667 L 300.583 41.750 300.553 44.203 L 300.523 46.655 304.630 46.703 C 308.618 46.749,308.762 46.739,309.577 46.365 C 311.888 45.307,311.684 42.212,309.274 41.764 C 308.450 41.611,308.500 42.018,309.325 42.187 C 311.120 42.554,311.326 45.059,309.634 45.934 C 309.282 46.115,308.245 46.167,304.925 46.167 L 300.667 46.167 300.667 44.000 L 300.667 41.833 304.407 41.833 C 306.464 41.833,308.186 41.771,308.233 41.694 C 308.280 41.618,308.228 41.562,308.118 41.569 C 308.007 41.577,306.267 41.621,304.250 41.667 M272.583 41.874 C 272.400 41.982,272.175 42.087,272.083 42.107 C 271.053 42.334,268.400 44.000,269.069 44.000 C 269.123 44.000,269.035 44.137,268.875 44.305 C 268.715 44.472,268.478 44.572,268.348 44.527 C 268.181 44.468,268.138 44.540,268.201 44.779 C 268.257 44.994,268.178 45.183,267.982 45.306 C 267.814 45.411,267.525 45.830,267.339 46.237 C 266.927 47.142,266.720 48.257,266.995 48.087 C 267.098 48.023,267.171 47.846,267.157 47.694 C 267.122 47.314,267.342 46.667,267.506 46.667 C 267.580 46.667,267.690 46.442,267.750 46.167 C 267.810 45.892,267.910 45.666,267.972 45.666 C 268.033 45.665,268.271 45.387,268.500 45.049 C 269.127 44.122,269.856 43.463,270.765 43.000 C 271.215 42.771,271.622 42.533,271.669 42.471 C 271.716 42.409,272.222 42.306,272.794 42.241 C 273.506 42.161,273.833 42.052,273.833 41.895 C 273.833 41.612,273.049 41.599,272.583 41.874 M48.631 42.708 C 48.717 44.284,48.783 44.440,48.808 43.125 C 48.822 42.415,48.777 41.833,48.708 41.833 C 48.640 41.833,48.605 42.227,48.631 42.708 M151.000 42.083 C 151.000 42.296,151.428 42.333,153.875 42.328 C 156.439 42.323,156.715 42.296,156.426 42.078 C 155.945 41.714,151.000 41.718,151.000 42.083 M156.833 42.183 C 156.833 42.266,157.016 42.333,157.240 42.333 C 157.464 42.333,157.698 42.415,157.760 42.516 C 157.822 42.616,158.051 42.664,158.270 42.622 C 158.488 42.580,158.668 42.592,158.669 42.648 C 158.670 42.704,158.983 42.900,159.366 43.083 C 160.960 43.848,162.586 46.215,162.360 47.446 C 162.341 47.553,162.401 47.689,162.496 47.747 C 162.600 47.812,162.667 48.820,162.667 50.343 C 162.667 51.965,162.727 52.833,162.841 52.833 C 162.937 52.833,163.012 52.515,163.007 52.125 C 163.002 51.735,163.039 50.917,163.089 50.306 C 163.139 49.695,163.113 49.153,163.029 49.102 C 162.946 49.050,162.908 48.744,162.943 48.421 C 162.979 48.098,162.941 47.833,162.860 47.833 C 162.779 47.833,162.711 47.665,162.710 47.458 C 162.703 46.587,162.655 46.345,162.445 46.135 C 162.323 46.013,162.171 45.708,162.108 45.457 C 162.045 45.206,161.920 45.000,161.830 45.000 C 161.740 45.000,161.667 44.881,161.667 44.736 C 161.667 44.312,160.095 42.844,159.517 42.728 C 159.233 42.672,159.000 42.551,159.000 42.461 C 159.000 42.368,158.814 42.344,158.569 42.405 C 158.333 42.465,158.179 42.448,158.229 42.368 C 158.278 42.288,158.228 42.209,158.118 42.194 C 157.152 42.057,156.833 42.055,156.833 42.183 M214.332 42.252 C 214.214 42.394,214.034 42.482,213.933 42.446 C 213.562 42.314,211.000 44.535,211.000 44.988 C 211.000 45.097,210.925 45.140,210.833 45.083 C 210.742 45.027,210.667 45.087,210.667 45.218 C 210.667 45.348,210.514 45.649,210.328 45.886 C 209.761 46.606,209.085 49.333,209.472 49.333 C 209.558 49.333,209.680 48.846,209.744 48.250 C 209.808 47.654,209.923 47.167,210.000 47.167 C 210.077 47.167,210.190 46.942,210.250 46.667 C 210.310 46.392,210.429 46.167,210.513 46.167 C 210.598 46.167,210.667 46.069,210.667 45.951 C 210.667 45.518,212.462 43.547,213.167 43.205 C 214.029 42.786,214.768 42.213,214.627 42.071 C 214.583 42.028,214.451 42.109,214.332 42.252 M317.854 43.985 C 317.875 44.451,317.955 44.833,318.030 44.833 C 318.232 44.833,318.196 43.371,317.991 43.244 C 317.875 43.173,317.829 43.424,317.854 43.985 M289.409 45.083 C 289.474 45.450,289.604 45.825,289.700 45.917 C 289.820 46.032,289.838 45.878,289.757 45.417 C 289.693 45.050,289.562 44.675,289.467 44.583 C 289.347 44.468,289.329 44.622,289.409 45.083 M37.075 50.167 C 37.075 53.237,37.097 54.494,37.125 52.958 C 37.152 51.423,37.152 48.910,37.125 47.375 C 37.097 45.840,37.075 47.096,37.075 50.167 M169.833 44.990 C 169.833 45.179,169.908 45.333,170.000 45.333 C 170.092 45.333,170.167 45.225,170.167 45.093 C 170.167 44.961,170.092 44.807,170.000 44.750 C 169.908 44.693,169.833 44.801,169.833 44.990 M31.443 45.395 C 31.374 45.658,31.356 45.912,31.405 45.960 C 31.539 46.094,31.703 45.558,31.631 45.218 C 31.585 44.996,31.535 45.042,31.443 45.395 M90.667 46.417 C 90.667 46.634,91.417 46.669,96.333 46.688 C 102.511 46.710,102.161 46.699,102.458 46.887 C 102.592 46.972,102.667 46.928,102.667 46.766 C 102.667 46.225,102.051 46.167,96.344 46.167 C 91.409 46.167,90.667 46.199,90.667 46.417 M170.093 46.318 C 170.041 46.401,170.070 46.645,170.156 46.860 C 170.302 47.225,170.313 47.215,170.323 46.708 C 170.333 46.161,170.263 46.042,170.093 46.318 M317.538 46.583 C 317.557 46.813,317.631 47.000,317.703 47.000 C 317.775 47.000,317.833 46.813,317.833 46.583 C 317.833 46.354,317.759 46.167,317.669 46.167 C 317.578 46.167,317.519 46.354,317.538 46.583 M357.167 46.417 C 357.167 46.634,357.917 46.669,362.833 46.688 C 369.011 46.710,368.661 46.699,368.958 46.887 C 369.092 46.972,369.167 46.928,369.167 46.766 C 369.167 46.225,368.551 46.167,362.844 46.167 C 357.909 46.167,357.167 46.199,357.167 46.417 M289.867 46.917 C 289.867 47.732,290.107 47.799,290.138 46.993 C 290.153 46.630,290.097 46.333,290.015 46.333 C 289.934 46.333,289.867 46.596,289.867 46.917 M232.836 48.282 C 232.837 48.539,232.911 48.862,233.000 49.000 C 233.120 49.186,233.162 49.093,233.164 48.635 C 233.166 48.296,233.092 47.973,233.000 47.917 C 232.904 47.857,232.834 48.012,232.836 48.282 M290.093 48.151 C 290.041 48.234,290.070 48.478,290.156 48.693 C 290.302 49.058,290.313 49.048,290.323 48.542 C 290.333 47.994,290.263 47.875,290.093 48.151 M118.833 48.575 C 118.833 48.748,120.407 50.463,122.494 52.565 C 124.507 54.592,128.393 58.519,131.129 61.292 L 136.104 66.333 137.455 66.333 C 138.864 66.333,139.333 66.242,139.333 65.969 C 139.333 65.871,138.694 65.825,137.737 65.853 L 136.140 65.899 131.528 61.292 C 128.992 58.758,126.078 55.837,125.052 54.801 C 124.026 53.765,122.361 52.101,121.351 51.103 C 120.341 50.106,119.530 49.242,119.549 49.184 C 119.568 49.125,119.415 48.895,119.208 48.674 C 118.881 48.322,118.833 48.309,118.833 48.575 M317.000 48.483 C 317.000 48.566,316.727 49.034,316.393 49.525 C 316.060 50.015,315.785 50.510,315.782 50.625 C 315.780 50.740,315.678 50.833,315.556 50.833 C 315.433 50.833,315.333 50.899,315.333 50.980 C 315.333 51.060,315.108 51.219,314.833 51.333 C 314.558 51.447,314.333 51.627,314.333 51.734 C 314.333 51.840,313.966 52.069,313.517 52.243 C 312.988 52.448,312.730 52.638,312.784 52.779 C 312.830 52.900,312.935 52.957,313.017 52.906 C 313.100 52.855,313.167 52.938,313.167 53.089 C 313.167 53.241,313.312 53.569,313.489 53.818 C 313.666 54.067,313.862 54.472,313.924 54.718 C 314.032 55.150,314.333 55.351,314.333 54.991 C 314.333 54.762,313.620 53.433,313.458 53.361 C 313.110 53.206,313.404 52.689,314.042 52.334 C 314.893 51.859,316.590 50.174,316.758 49.636 C 316.824 49.424,316.933 49.212,317.000 49.167 C 317.220 49.016,317.365 48.333,317.178 48.333 C 317.080 48.333,317.000 48.401,317.000 48.483 M266.616 48.899 C 266.548 49.072,266.531 49.254,266.579 49.302 C 266.731 49.454,266.865 49.205,266.801 48.888 C 266.743 48.598,266.734 48.599,266.616 48.899 M68.550 50.000 C 68.550 50.504,68.581 50.710,68.619 50.458 C 68.658 50.206,68.658 49.794,68.619 49.542 C 68.581 49.290,68.550 49.496,68.550 50.000 M170.333 50.333 C 170.333 50.860,170.397 51.147,170.500 51.083 C 170.592 51.027,170.667 50.689,170.667 50.333 C 170.667 49.977,170.592 49.640,170.500 49.583 C 170.397 49.520,170.333 49.807,170.333 50.333 M65.583 51.167 L 62.750 51.262 65.615 51.298 C 67.385 51.320,68.520 51.270,68.583 51.167 C 68.640 51.075,68.626 51.016,68.552 51.036 C 68.477 51.055,67.142 51.114,65.583 51.167 M209.414 51.875 C 209.481 52.265,209.539 52.696,209.542 52.833 C 209.545 52.971,209.687 53.283,209.858 53.527 C 210.028 53.770,210.122 54.089,210.066 54.235 C 210.010 54.381,210.042 54.500,210.136 54.500 C 210.230 54.500,210.390 54.751,210.492 55.058 C 210.593 55.365,210.932 55.830,211.245 56.091 C 211.557 56.351,211.778 56.621,211.735 56.691 C 211.635 56.852,212.255 57.190,212.395 57.050 C 212.453 56.992,212.500 57.057,212.500 57.195 C 212.500 57.334,212.688 57.532,212.917 57.636 C 213.259 57.792,213.333 57.782,213.333 57.580 C 213.333 57.444,213.238 57.333,213.120 57.333 C 213.003 57.333,212.776 57.180,212.616 56.993 C 212.452 56.802,212.235 56.704,212.121 56.770 C 212.008 56.834,211.974 56.824,212.044 56.747 C 212.212 56.562,211.332 55.648,211.115 55.782 C 211.019 55.841,211.001 55.801,211.072 55.685 C 211.140 55.575,211.123 55.395,211.034 55.284 C 210.456 54.564,209.793 52.980,209.712 52.125 C 209.661 51.598,209.546 51.167,209.456 51.167 C 209.353 51.167,209.338 51.436,209.414 51.875 M266.544 51.577 C 266.628 52.206,266.833 52.289,266.833 51.694 C 266.833 51.404,266.756 51.167,266.661 51.167 C 266.566 51.167,266.513 51.351,266.544 51.577 M48.625 51.624 C 49.473 51.654,50.860 51.654,51.708 51.624 C 52.556 51.594,51.862 51.569,50.167 51.569 C 48.471 51.569,47.777 51.594,48.625 51.624 M232.944 51.944 C 232.772 52.117,232.814 52.667,233.000 52.667 C 233.092 52.667,233.167 52.479,233.167 52.250 C 233.167 51.814,233.128 51.761,232.944 51.944 M290.111 52.444 C 290.050 52.506,290.006 52.749,290.014 52.986 C 290.028 53.409,290.031 53.408,290.175 52.925 C 290.327 52.418,290.305 52.251,290.111 52.444 M266.833 52.883 C 266.833 53.003,266.896 53.171,266.972 53.258 C 267.048 53.345,267.204 53.745,267.318 54.146 C 267.545 54.943,267.604 55.032,268.583 56.076 C 268.950 56.466,269.258 56.853,269.269 56.935 C 269.279 57.016,269.449 57.166,269.647 57.267 C 269.844 57.368,270.061 57.511,270.128 57.585 C 270.195 57.659,270.145 57.659,270.016 57.584 C 269.854 57.490,269.820 57.511,269.908 57.652 C 269.977 57.764,270.139 57.816,270.267 57.767 C 270.395 57.717,270.500 57.731,270.501 57.797 C 270.501 57.926,272.015 58.596,272.190 58.544 C 272.248 58.527,272.536 58.581,272.829 58.665 C 273.273 58.793,273.330 58.780,273.171 58.589 C 273.066 58.463,272.666 58.308,272.282 58.245 C 271.898 58.182,271.471 58.044,271.333 57.938 C 271.196 57.833,270.832 57.607,270.524 57.436 C 269.958 57.123,268.593 55.826,268.208 55.237 C 267.823 54.648,267.167 53.191,267.167 52.927 C 267.167 52.784,267.092 52.667,267.000 52.667 C 266.908 52.667,266.833 52.764,266.833 52.883 M162.481 52.880 C 162.471 52.900,162.437 53.127,162.407 53.384 C 162.187 55.257,159.860 57.833,158.390 57.833 C 158.212 57.833,157.987 57.913,157.889 58.011 C 157.784 58.116,156.347 58.243,154.397 58.319 L 151.083 58.448 153.750 58.494 C 155.217 58.520,156.604 58.545,156.833 58.549 C 157.524 58.564,158.720 58.306,159.093 58.062 C 159.286 57.935,159.485 57.874,159.536 57.925 C 159.587 57.976,159.777 57.829,159.959 57.598 C 160.140 57.367,160.329 57.218,160.378 57.267 C 160.508 57.397,161.543 56.312,161.833 55.741 C 161.970 55.471,162.158 55.195,162.250 55.128 C 162.342 55.060,162.358 55.004,162.287 55.003 C 162.216 55.001,162.273 54.779,162.412 54.508 C 162.552 54.238,162.667 53.863,162.667 53.675 C 162.667 53.487,162.742 53.333,162.833 53.333 C 163.091 53.333,163.030 53.047,162.750 52.940 C 162.612 52.887,162.491 52.860,162.481 52.880 M170.154 53.292 C 170.147 53.544,170.108 53.900,170.068 54.083 C 169.908 54.812,169.858 56.042,169.993 55.900 C 170.161 55.724,170.422 52.833,170.270 52.833 C 170.213 52.833,170.161 53.040,170.154 53.292 M102.410 53.175 C 102.196 53.518,102.169 53.833,102.353 53.833 C 102.552 53.833,102.720 53.410,102.630 53.139 C 102.579 52.987,102.521 52.997,102.410 53.175 M253.780 53.292 C 253.519 53.553,252.951 53.592,248.286 53.667 L 243.083 53.750 243.078 59.500 L 243.073 65.250 243.122 59.708 L 243.171 54.167 248.080 54.167 C 253.338 54.167,254.167 54.049,254.167 53.302 C 254.167 52.929,254.143 52.929,253.780 53.292 M368.910 53.175 C 368.696 53.518,368.669 53.833,368.853 53.833 C 369.052 53.833,369.220 53.410,369.130 53.139 C 369.079 52.987,369.021 52.997,368.910 53.175 M67.830 53.587 C 67.714 53.727,67.667 53.890,67.726 53.948 C 67.785 54.007,67.833 53.968,67.833 53.861 C 67.833 53.727,68.304 53.667,69.343 53.667 C 70.307 53.667,70.816 53.606,70.750 53.500 C 70.575 53.217,68.075 53.292,67.830 53.587 M96.208 53.625 C 91.563 53.665,90.833 53.705,90.833 53.921 C 90.833 54.335,101.888 54.207,101.968 53.792 C 102.001 53.620,101.934 53.516,101.804 53.539 C 101.683 53.561,99.165 53.599,96.208 53.625 M362.708 53.625 C 358.063 53.665,357.333 53.705,357.333 53.921 C 357.333 54.335,368.388 54.207,368.468 53.792 C 368.501 53.620,368.434 53.516,368.304 53.539 C 368.183 53.561,365.665 53.599,362.708 53.625 M300.619 53.769 C 300.563 53.826,300.530 56.357,300.546 59.394 L 300.575 64.917 300.623 59.537 L 300.671 54.157 302.792 54.203 L 304.912 54.250 305.304 55.000 C 305.520 55.413,306.064 56.360,306.515 57.106 C 306.965 57.853,307.333 58.546,307.333 58.648 C 307.333 58.750,307.450 58.833,307.593 58.833 C 307.736 58.833,307.806 58.909,307.749 59.001 C 307.692 59.093,308.025 59.798,308.489 60.566 C 308.954 61.334,309.333 62.046,309.333 62.148 C 309.333 62.250,309.408 62.333,309.500 62.333 C 309.592 62.333,309.667 62.415,309.667 62.515 C 309.667 63.120,311.772 66.171,312.249 66.257 C 313.596 66.500,319.744 66.257,319.802 65.958 C 319.833 65.798,319.773 65.667,319.669 65.667 C 319.565 65.667,319.521 65.733,319.572 65.814 C 319.622 65.896,319.514 66.001,319.331 66.049 C 319.149 66.097,319.042 66.068,319.093 65.984 C 319.148 65.896,317.712 65.833,315.623 65.833 L 312.060 65.833 311.698 65.417 C 311.499 65.188,311.384 65.000,311.444 65.000 C 311.503 65.000,311.443 64.869,311.309 64.708 C 311.176 64.548,310.921 64.117,310.742 63.750 C 310.563 63.383,310.365 63.044,310.302 62.997 C 310.239 62.949,310.107 62.724,310.008 62.497 C 309.909 62.269,309.684 61.858,309.508 61.583 C 309.332 61.308,309.027 60.764,308.829 60.375 C 308.631 59.985,308.402 59.708,308.318 59.759 C 308.235 59.811,308.167 59.667,308.167 59.439 C 308.167 59.212,307.979 58.803,307.750 58.530 C 307.521 58.258,307.333 57.910,307.333 57.758 C 307.333 57.605,307.258 57.527,307.167 57.583 C 307.075 57.640,307.000 57.579,307.000 57.447 C 307.000 57.315,306.886 57.113,306.746 56.997 C 306.606 56.881,306.528 56.750,306.572 56.706 C 306.693 56.585,305.996 55.288,305.646 54.983 C 305.477 54.836,305.380 54.676,305.429 54.627 C 305.478 54.577,305.337 54.341,305.115 54.102 C 304.722 53.678,300.987 53.401,300.619 53.769 M232.554 54.110 C 232.614 54.170,232.600 54.301,232.523 54.401 C 232.445 54.501,232.292 54.958,232.183 55.417 C 232.074 55.875,231.946 56.381,231.898 56.542 C 231.850 56.702,231.884 56.833,231.974 56.833 C 232.064 56.833,232.191 56.515,232.256 56.125 C 232.321 55.735,232.428 55.379,232.495 55.333 C 232.709 55.185,232.828 54.000,232.628 54.000 C 232.527 54.000,232.494 54.049,232.554 54.110 M289.600 54.684 C 289.409 55.282,289.333 56.167,289.474 56.167 C 289.646 56.167,289.912 54.690,289.766 54.544 C 289.716 54.494,289.641 54.557,289.600 54.684 M314.264 55.311 C 314.215 55.390,314.308 55.576,314.471 55.724 C 314.635 55.872,314.871 56.254,314.996 56.572 C 315.121 56.891,315.297 57.106,315.387 57.050 C 315.486 56.989,315.498 57.036,315.417 57.166 C 315.337 57.296,315.377 57.459,315.516 57.570 C 315.861 57.844,316.678 59.433,316.543 59.568 C 316.479 59.632,316.556 59.635,316.713 59.574 C 316.930 59.491,317.000 59.553,317.000 59.826 C 317.000 60.170,317.268 60.820,317.483 61.000 C 317.683 61.166,318.351 62.500,318.235 62.500 C 318.169 62.500,318.264 62.631,318.445 62.792 C 318.626 62.952,318.993 63.522,319.262 64.058 C 319.530 64.593,319.773 64.917,319.802 64.777 C 319.853 64.526,318.753 62.329,318.494 62.165 C 318.420 62.118,318.308 61.874,318.245 61.623 C 318.182 61.372,318.069 61.167,317.993 61.167 C 317.918 61.167,317.803 60.998,317.739 60.792 C 317.674 60.585,317.576 60.379,317.519 60.333 C 317.463 60.288,317.231 59.894,317.003 59.458 C 316.776 59.023,316.538 58.667,316.475 58.667 C 316.412 58.667,316.310 58.442,316.250 58.167 C 316.190 57.892,316.071 57.667,315.987 57.667 C 315.902 57.667,315.833 57.560,315.833 57.429 C 315.833 57.298,315.739 57.091,315.623 56.970 C 315.507 56.849,315.301 56.531,315.165 56.263 C 314.566 55.087,314.467 54.982,314.264 55.311 M31.896 56.078 C 31.726 56.520,31.912 56.665,32.109 56.245 C 32.217 56.015,32.233 55.833,32.146 55.833 C 32.060 55.833,31.947 55.943,31.896 56.078 M42.072 56.018 C 41.901 56.295,41.935 58.002,42.116 58.183 C 42.208 58.275,43.630 58.322,45.512 58.295 L 48.750 58.250 48.767 57.417 L 48.784 56.583 48.716 57.375 L 48.648 58.167 45.435 58.167 C 41.700 58.167,42.051 58.300,42.166 56.926 C 42.262 55.779,42.256 55.720,42.072 56.018 M169.534 56.625 C 169.541 56.785,169.489 57.142,169.418 57.417 C 169.332 57.752,169.346 57.862,169.458 57.750 C 169.698 57.513,169.886 56.333,169.685 56.333 C 169.594 56.333,169.527 56.465,169.534 56.625 M288.671 57.431 C 288.362 58.065,288.015 58.696,287.900 58.833 C 287.785 58.971,287.704 59.133,287.720 59.193 C 287.737 59.254,287.543 59.466,287.290 59.665 C 287.037 59.864,286.873 60.097,286.926 60.182 C 286.979 60.268,286.821 60.506,286.575 60.711 C 286.328 60.916,285.700 61.515,285.178 62.042 C 284.656 62.569,284.145 63.000,284.041 63.000 C 283.937 63.000,283.746 63.152,283.616 63.337 C 283.475 63.538,283.276 63.634,283.122 63.575 C 282.953 63.510,282.825 63.597,282.752 63.828 C 282.684 64.042,282.449 64.219,282.153 64.278 C 281.886 64.331,281.667 64.434,281.667 64.505 C 281.667 64.577,281.517 64.596,281.333 64.548 C 281.117 64.492,281.000 64.543,281.000 64.695 C 281.000 64.823,280.869 64.939,280.708 64.952 C 280.110 65.000,279.747 65.087,279.659 65.204 C 279.610 65.271,279.385 65.359,279.159 65.400 C 278.934 65.441,278.712 65.490,278.667 65.507 C 278.621 65.525,278.527 65.531,278.458 65.520 C 278.390 65.509,278.333 65.575,278.333 65.667 C 278.333 65.758,278.521 65.833,278.750 65.833 C 278.979 65.833,279.167 65.765,279.167 65.682 C 279.167 65.599,279.317 65.571,279.501 65.619 C 279.685 65.667,279.928 65.631,280.043 65.539 C 280.157 65.447,280.494 65.320,280.792 65.256 C 281.090 65.192,281.333 65.077,281.333 65.000 C 281.333 64.923,281.558 64.810,281.833 64.750 C 282.108 64.690,282.333 64.571,282.333 64.487 C 282.333 64.402,282.426 64.333,282.540 64.333 C 282.974 64.333,285.408 62.476,286.236 61.513 C 286.427 61.291,286.697 60.990,286.837 60.843 C 287.356 60.297,288.688 58.163,288.712 57.837 C 288.726 57.652,288.798 57.500,288.873 57.500 C 289.040 57.500,289.365 56.678,289.288 56.448 C 289.257 56.355,288.979 56.798,288.671 57.431 M231.171 57.930 C 230.945 58.439,230.516 59.130,230.217 59.465 C 229.871 59.854,229.733 60.133,229.835 60.235 C 229.923 60.323,230.015 60.362,230.039 60.322 C 230.064 60.282,230.253 60.009,230.459 59.715 C 230.665 59.421,230.833 59.108,230.833 59.021 C 230.833 58.933,230.901 58.836,230.985 58.806 C 231.068 58.775,231.162 58.600,231.193 58.417 C 231.224 58.233,231.336 58.008,231.442 57.917 C 231.686 57.704,231.900 56.999,231.720 57.002 C 231.645 57.003,231.398 57.420,231.171 57.930 M213.500 57.822 C 213.500 57.908,213.651 58.025,213.836 58.084 C 214.020 58.143,214.136 58.248,214.093 58.318 C 214.050 58.387,214.105 58.455,214.216 58.467 C 214.326 58.480,214.861 58.571,215.403 58.669 C 215.946 58.767,216.509 58.815,216.653 58.776 C 216.798 58.737,216.679 58.697,216.389 58.686 C 216.099 58.675,215.836 58.597,215.806 58.511 C 215.775 58.426,215.453 58.332,215.090 58.303 C 214.727 58.274,214.296 58.119,214.132 57.958 C 213.807 57.641,213.500 57.575,213.500 57.822 M31.833 57.962 C 31.833 58.055,31.952 58.177,32.097 58.232 C 32.480 58.379,38.667 58.357,38.667 58.208 C 38.667 58.140,37.235 58.105,35.484 58.132 C 33.242 58.166,32.232 58.123,32.067 57.987 C 31.925 57.869,31.833 57.859,31.833 57.962 M168.994 58.334 C 168.868 58.563,168.739 58.932,168.706 59.154 C 168.674 59.376,168.465 59.789,168.242 60.071 C 167.126 61.481,166.852 61.802,166.048 62.640 C 165.204 63.521,164.727 63.883,164.125 64.100 C 163.965 64.158,163.833 64.272,163.833 64.353 C 163.833 64.434,163.749 64.481,163.646 64.458 C 163.543 64.435,163.421 64.518,163.376 64.642 C 163.293 64.871,163.975 64.761,164.167 64.515 C 164.212 64.456,164.413 64.335,164.613 64.245 C 165.186 63.989,166.509 62.815,166.407 62.652 C 166.357 62.570,166.432 62.548,166.575 62.603 C 166.717 62.658,166.833 62.630,166.833 62.542 C 166.833 62.454,167.002 62.196,167.208 61.968 C 168.109 60.972,169.429 58.538,169.292 58.125 C 169.250 58.001,169.130 58.085,168.994 58.334 M53.383 58.291 C 54.190 58.321,55.465 58.321,56.217 58.291 C 56.968 58.260,56.308 58.235,54.750 58.235 C 53.192 58.235,52.577 58.260,53.383 58.291 M60.875 58.291 C 62.594 58.319,65.406 58.319,67.125 58.291 C 68.844 58.264,67.438 58.242,64.000 58.242 C 60.563 58.242,59.156 58.264,60.875 58.291 M90.782 58.773 C 90.434 59.122,91.531 59.177,98.529 59.160 C 102.746 59.150,106.217 59.166,106.241 59.196 C 106.265 59.226,106.368 59.400,106.470 59.583 C 106.646 59.898,106.657 59.893,106.662 59.492 C 106.672 58.655,106.782 58.667,98.578 58.667 C 94.349 58.667,90.841 58.715,90.782 58.773 M217.106 58.917 C 217.159 59.054,217.298 59.167,217.414 59.167 C 217.531 59.167,217.719 59.054,217.833 58.917 C 218.010 58.704,217.965 58.667,217.526 58.667 C 217.136 58.667,217.034 58.728,217.106 58.917 M273.750 58.786 C 273.933 58.830,274.155 58.933,274.242 59.016 C 274.468 59.231,274.722 59.203,275.093 58.922 C 275.389 58.698,275.330 58.678,274.417 58.691 C 273.867 58.699,273.567 58.741,273.750 58.786 M357.282 58.773 C 356.934 59.122,358.031 59.177,365.029 59.160 C 369.246 59.150,372.717 59.166,372.741 59.196 C 372.765 59.226,372.868 59.400,372.970 59.583 C 373.146 59.898,373.157 59.893,373.162 59.492 C 373.172 58.655,373.282 58.667,365.078 58.667 C 360.849 58.667,357.341 58.715,357.282 58.773 M106.567 62.500 C 106.567 63.921,106.593 64.502,106.624 63.792 C 106.655 63.081,106.655 61.919,106.624 61.208 C 106.593 60.498,106.567 61.079,106.567 62.500 M373.067 62.500 C 373.067 63.921,373.093 64.502,373.124 63.792 C 373.155 63.081,373.155 61.919,373.124 61.208 C 373.093 60.498,373.067 61.079,373.067 62.500 M228.616 61.393 C 228.084 61.971,227.355 62.626,226.996 62.847 C 226.636 63.069,226.340 63.344,226.338 63.458 C 226.335 63.573,226.208 63.667,226.055 63.667 C 225.902 63.667,225.650 63.781,225.496 63.920 C 225.342 64.059,224.886 64.272,224.483 64.393 C 224.080 64.514,223.768 64.697,223.790 64.800 C 223.812 64.904,223.718 64.945,223.581 64.893 C 223.437 64.838,223.332 64.892,223.331 65.024 C 223.329 65.198,223.291 65.193,223.167 65.000 C 223.049 64.818,223.004 64.810,223.003 64.968 C 223.001 65.088,222.920 65.137,222.823 65.077 C 222.725 65.017,222.519 65.078,222.364 65.213 C 222.210 65.348,221.952 65.437,221.792 65.411 C 221.631 65.384,221.500 65.426,221.500 65.503 C 221.500 65.579,221.369 65.681,221.208 65.729 C 221.048 65.777,221.329 65.774,221.833 65.722 C 222.338 65.670,222.775 65.562,222.806 65.481 C 222.836 65.400,222.986 65.331,223.139 65.328 C 223.531 65.320,224.693 64.749,224.570 64.625 C 224.513 64.569,224.624 64.564,224.817 64.614 C 225.018 64.667,225.167 64.626,225.167 64.519 C 225.167 64.417,225.238 64.333,225.325 64.333 C 225.544 64.333,226.964 63.373,227.653 62.758 C 228.658 61.861,229.833 60.608,229.833 60.432 C 229.833 60.169,229.501 60.431,228.616 61.393 M268.266 64.789 C 268.053 65.002,268.188 65.145,268.708 65.256 C 269.006 65.320,269.343 65.447,269.457 65.539 C 269.572 65.631,269.815 65.667,269.999 65.619 C 270.183 65.571,270.375 65.599,270.426 65.682 C 270.478 65.765,270.644 65.833,270.797 65.833 C 271.015 65.833,270.996 65.778,270.703 65.574 C 270.500 65.431,270.264 65.357,270.180 65.409 C 270.096 65.461,269.914 65.391,269.777 65.253 C 269.610 65.086,269.506 65.065,269.464 65.190 C 269.422 65.317,269.323 65.300,269.159 65.138 C 268.855 64.837,268.397 64.658,268.266 64.789 M161.834 65.200 C 161.631 65.364,161.398 65.457,161.316 65.406 C 161.234 65.355,161.167 65.393,161.167 65.490 C 161.167 65.708,161.411 65.716,161.794 65.512 C 162.109 65.344,162.684 65.121,162.861 65.098 C 162.922 65.090,163.031 65.025,163.102 64.953 C 163.372 64.684,162.186 64.914,161.834 65.200 M214.072 65.930 C 214.230 66.088,214.931 66.161,216.522 66.186 C 220.293 66.245,220.833 66.211,220.833 65.916 C 220.833 65.714,220.764 65.692,220.526 65.820 C 220.314 65.933,220.158 65.924,220.026 65.792 C 219.920 65.686,219.833 65.671,219.833 65.758 C 219.833 65.845,219.665 65.924,219.458 65.932 C 219.252 65.941,218.834 65.999,218.529 66.062 C 218.158 66.138,218.011 66.118,218.083 66.001 C 218.157 65.881,217.659 65.846,216.509 65.891 C 215.584 65.928,214.792 65.902,214.750 65.833 C 214.707 65.764,214.488 65.708,214.262 65.708 C 213.921 65.708,213.889 65.746,214.072 65.930 M271.475 65.849 C 271.247 65.990,271.614 66.226,271.933 66.145 C 272.016 66.125,272.796 66.158,273.667 66.219 C 275.451 66.344,277.987 66.169,278.045 65.917 C 278.066 65.825,277.839 65.738,277.541 65.723 C 277.242 65.708,277.033 65.752,277.076 65.821 C 277.118 65.890,276.800 65.939,276.368 65.929 C 275.937 65.920,275.475 65.988,275.343 66.081 C 275.158 66.211,275.135 66.196,275.244 66.015 C 275.363 65.819,275.198 65.797,274.234 65.882 C 273.601 65.937,272.770 65.923,272.387 65.849 C 272.004 65.776,271.593 65.776,271.475 65.849 " stroke="none" fill="#0464fc" fill-rule="evenodd"></path><path id="path3" d="" stroke="none" fill="#086cfc" fill-rule="evenodd"></path><path id="path4" d="M51.452 41.958 C 51.415 42.027,51.443 42.496,51.514 43.000 L 51.644 43.917 51.600 42.966 C 51.577 42.443,51.614 42.051,51.684 42.094 C 51.753 42.137,51.857 42.096,51.915 42.003 C 51.973 41.910,51.907 41.833,51.770 41.833 C 51.632 41.833,51.489 41.890,51.452 41.958 M57.615 41.949 C 57.724 42.027,57.844 42.501,57.881 43.004 L 57.948 43.917 57.932 42.930 C 57.921 42.203,57.851 41.925,57.667 41.875 C 57.492 41.828,57.477 41.851,57.615 41.949 M48.530 43.117 C 48.508 43.744,48.420 44.030,48.208 44.153 C 47.932 44.314,47.932 44.323,48.214 44.328 C 48.605 44.335,48.700 44.043,48.623 43.062 L 48.560 42.250 48.530 43.117 M41.973 45.084 C 41.942 45.680,41.967 46.167,42.027 46.167 C 42.088 46.167,42.163 45.679,42.194 45.083 C 42.225 44.487,42.200 43.999,42.139 44.000 C 42.078 44.000,42.003 44.488,41.973 45.084 M31.388 44.583 C 31.388 44.679,31.750 44.729,32.236 44.702 C 33.701 44.619,33.788 44.563,32.569 44.489 C 31.845 44.445,31.388 44.481,31.388 44.583 M59.434 44.597 C 59.256 45.063,59.318 55.667,59.500 55.667 C 59.608 55.667,59.667 53.667,59.667 50.000 C 59.667 44.492,59.647 44.042,59.434 44.597 M37.625 44.621 C 37.923 44.658,38.410 44.658,38.708 44.621 C 39.006 44.584,38.762 44.553,38.167 44.553 C 37.571 44.553,37.327 44.584,37.625 44.621 M43.792 48.208 C 43.872 55.133,43.928 55.765,43.964 50.125 C 43.984 47.031,43.944 44.500,43.875 44.500 C 43.806 44.500,43.769 46.169,43.792 48.208 M46.944 44.611 C 46.764 44.792,46.815 48.803,47.000 48.917 C 47.108 48.983,47.167 48.224,47.167 46.760 C 47.167 45.517,47.142 44.500,47.111 44.500 C 47.081 44.500,47.006 44.550,46.944 44.611 M56.278 44.611 C 56.056 44.833,56.150 55.637,56.375 55.777 C 56.689 55.973,56.987 55.989,57.095 55.814 C 57.148 55.729,57.130 55.669,57.054 55.682 C 56.293 55.814,56.321 56.048,56.371 50.083 C 56.396 47.012,56.410 44.500,56.403 44.500 C 56.395 44.500,56.339 44.550,56.278 44.611 M64.049 44.624 C 64.764 44.655,65.889 44.655,66.549 44.624 C 67.210 44.592,66.625 44.566,65.250 44.567 C 63.875 44.567,63.335 44.593,64.049 44.624 M53.231 46.750 C 53.232 47.942,53.258 48.407,53.290 47.785 C 53.323 47.162,53.322 46.187,53.290 45.618 C 53.257 45.049,53.231 45.558,53.231 46.750 M70.408 46.324 C 70.321 46.411,69.800 46.509,69.250 46.543 L 68.250 46.604 69.271 46.635 C 70.006 46.658,70.351 46.596,70.500 46.417 C 70.728 46.142,70.660 46.073,70.408 46.324 M62.609 51.125 C 62.566 51.194,63.443 51.230,64.557 51.205 C 67.814 51.132,68.116 51.060,65.302 51.029 C 63.863 51.013,62.651 51.056,62.609 51.125 M50.176 51.456 L 53.185 51.508 53.134 53.663 C 53.106 54.848,53.142 55.759,53.214 55.687 C 53.285 55.615,53.323 54.625,53.297 53.486 L 53.250 51.417 50.208 51.411 L 47.166 51.405 50.176 51.456 M46.833 53.667 C 46.833 54.889,46.898 55.667,47.000 55.667 C 47.102 55.667,47.167 54.889,47.167 53.667 C 47.167 52.444,47.102 51.667,47.000 51.667 C 46.898 51.667,46.833 52.444,46.833 53.667 M32.750 55.826 C 32.508 55.925,32.605 55.955,33.108 55.939 C 33.488 55.927,33.765 55.860,33.723 55.792 C 33.627 55.634,33.183 55.649,32.750 55.826 M57.443 56.042 C 57.544 56.206,58.027 56.197,58.296 56.026 C 58.428 55.943,58.290 55.896,57.938 55.904 C 57.624 55.911,57.401 55.973,57.443 56.042 M48.473 56.996 L 48.529 57.992 45.640 58.044 L 42.750 58.095 45.667 58.089 L 48.583 58.083 48.633 57.042 C 48.660 56.469,48.623 56.000,48.550 56.000 C 48.476 56.000,48.442 56.448,48.473 56.996 M32.019 57.032 C 32.009 57.554,32.056 58.015,32.125 58.058 C 32.194 58.100,32.228 57.786,32.200 57.359 C 32.122 56.142,32.040 55.994,32.019 57.032 M51.513 57.282 C 51.506 57.666,51.559 58.017,51.632 58.062 C 51.704 58.107,51.736 57.867,51.703 57.530 C 51.612 56.608,51.528 56.498,51.513 57.282 M57.875 57.250 C 57.877 57.617,57.911 57.747,57.951 57.540 C 57.991 57.332,57.990 57.032,57.948 56.873 C 57.906 56.714,57.874 56.883,57.875 57.250 M34.050 58.124 C 34.856 58.155,36.131 58.155,36.883 58.124 C 37.635 58.093,36.975 58.068,35.417 58.068 C 33.858 58.068,33.243 58.094,34.050 58.124 M53.466 58.124 C 54.227 58.155,55.427 58.155,56.133 58.124 C 56.839 58.093,56.217 58.067,54.750 58.067 C 53.283 58.068,52.706 58.093,53.466 58.124 M60.333 58.119 C 65.588 58.236,70.334 58.239,70.333 58.125 C 70.333 58.056,67.615 58.016,64.292 58.036 C 60.969 58.056,59.188 58.093,60.333 58.119 " stroke="none" fill="#0474fc" fill-rule="evenodd"></path></g></svg>